<?xml version="1.0" encoding="UTF-8"?>
<svg version="1.1" xmlns="http://www.w3.org/2000/svg" width="201" height="84">
<path d="M0 0 C51.66894236 -1.12173723 51.66894236 -1.12173723 70.13671875 14.84765625 C74.15245202 18.94484456 75.81470597 22.30617743 76.3203125 28.01953125 C76 30 76 30 74.7421875 31.76171875 C73 33 73 33 69 33 C68.67 33.66 68.34 34.32 68 35 C64.37 35 60.74 35 57 35 C56.67 36.65 56.34 38.3 56 40 C55.34 40.99 54.68 41.98 54 43 C55.32 43.66 56.64 44.32 58 45 C58 45.99 58 46.98 58 48 C55.6875 49.75 55.6875 49.75 53 51 C52.01 50.67 51.02 50.34 50 50 C50.33 48.68 50.66 47.36 51 46 C45.91740995 44.71440369 40.89763697 44.97263782 35.70703125 45.12695312 C31.89514776 45.18751576 30.25704393 45.17136262 27 43 C24.55183404 43.79549696 24.55183404 43.79549696 22 45 C20.63875 45.2475 20.63875 45.2475 19.25 45.5 C18.5075 45.665 17.765 45.83 17 46 C16.505 46.99 16.505 46.99 16 48 C14.66666667 48.66666667 13.33333333 49.33333333 12 50 C11.505 50.99 11.505 50.99 11 52 C12.010625 51.79375 13.02125 51.5875 14.0625 51.375 C19.01437855 50.90339252 22.75450384 51.5965649 27 54.25 C28 56 28 56 28.0625 58.9375 C26.97782174 62.06392557 26.03636849 63.63009562 23.14453125 65.3046875 C18.29807813 66.87603296 12.98322754 66.84820894 8 66 C5.3006775 64.18807513 3.45945024 62.91890047 2 60 C-2.55519783 63.93963055 -4.15451681 67.26928904 -6 73 C-9.465 73.495 -9.465 73.495 -13 74 C-13.495 75.485 -13.495 75.485 -14 77 C-32.94727645 77.49001577 -54.30784757 76.52172932 -70.1171875 64.84375 C-72.26274491 62.74270623 -73.62501262 60.66349757 -75 58 C-75 57.34 -75 56.68 -75 56 C-75.66 56 -76.32 56 -77 56 C-77.22084624 49.90218999 -77.01167675 44.78357065 -75 39 C-74.34 39 -73.68 39 -73 39 C-72.566875 38.13375 -72.566875 38.13375 -72.125 37.25 C-70.5625 34.125 -70.5625 34.125 -69 31 C-68.34 31 -67.68 31 -67 31 C-66.67 30.34 -66.34 29.68 -66 29 C-64.92850682 27.96506696 -63.8189009 26.96908 -62.6875 26 C-62.09324219 25.484375 -61.49898437 24.96875 -60.88671875 24.4375 C-59 23 -59 23 -56.95703125 22 C-54.94538759 21.10183832 -54.94538759 21.10183832 -53.52734375 19.50390625 C-51.68510077 17.68993298 -49.94242263 16.92879998 -47.5625 15.9375 C-44.34319478 14.58852602 -44.34319478 14.58852602 -41.2109375 13.0546875 C-28.36158274 6.92513664 -13.81144623 4.05962755 0 1 C0 0.67 0 0.34 0 0 Z M15 57 C14.67 58.32 14.34 59.64 14 61 C15.32 60.67 16.64 60.34 18 60 C17.67 59.01 17.34 58.02 17 57 C16.34 57 15.68 57 15 57 Z " fill="#D82651" transform="translate(86,0)"/>
<path d="M0 0 C0 0.66 0 1.32 0 2 C-3.3 2.66 -6.6 3.32 -10 4 C-10 4.99 -10 5.98 -10 7 C-11.32 7 -12.64 7 -14 7 C-14 7.66 -14 8.32 -14 9 C-8.72 9.33 -3.44 9.66 2 10 C1.34 10.33 0.68 10.66 0 11 C0.01160156 11.85464844 0.02320313 12.70929687 0.03515625 13.58984375 C0.04417969 14.69457031 0.05320313 15.79929687 0.0625 16.9375 C0.07410156 18.03964844 0.08570313 19.14179687 0.09765625 20.27734375 C0 23 0 23 -1 24 C-3.67058851 24.14115161 -6.32432238 24.04247107 -9 24 C-9.495 19.545 -9.495 19.545 -10 15 C-10.66 15.99 -11.32 16.98 -12 18 C-12 15.69 -12 13.38 -12 11 C-13.65 11 -15.3 11 -17 11 C-17 16.61 -17 22.22 -17 28 C-11.72 28 -6.44 28 -1 28 C-1.33 28.66 -1.66 29.32 -2 30 C-4.54941373 30.31241371 -7.00361513 30.51303421 -9.5625 30.625 C-10.27341797 30.66367187 -10.98433594 30.70234375 -11.71679688 30.7421875 C-13.47742425 30.83671783 -15.23867728 30.91945817 -17 31 C-17 31.33 -17 31.66 -17 32 C-16.29875 31.98839844 -15.5975 31.97679688 -14.875 31.96484375 C-9.13886898 31.91028816 -3.67221747 32.14381623 2 33 C3.2414637 35.97951289 4.26699596 38.8585541 5 42 C5.33 42.99 5.66 43.98 6 45 C7.7015625 45.185625 7.7015625 45.185625 9.4375 45.375 C10.613125 45.58125 11.78875 45.7875 13 46 C13.33 46.66 13.66 47.32 14 48 C16.64 48 19.28 48 22 48 C22 47.34 22 46.68 22 46 C21.24074219 45.89042969 20.48148437 45.78085937 19.69921875 45.66796875 C18.70535156 45.50941406 17.71148437 45.35085937 16.6875 45.1875 C15.70136719 45.03667969 14.71523437 44.88585938 13.69921875 44.73046875 C10.82553072 43.95278472 9.66918506 43.44396038 8 41 C8 39.68 8 38.36 8 37 C11.81490419 33.80646278 15.13818693 33.59356586 20 33.625 C21.19625 33.61726563 22.3925 33.60953125 23.625 33.6015625 C27.21616379 34.02551934 29.15901549 34.79393248 32 37 C32 37.66 32 38.32 32 39 C26.47322267 39.19392201 22.24385089 38.7479503 17 37 C19.30952805 39.66713239 21.26333268 40.62854487 24.625 41.625 C28.91666667 42.91666667 28.91666667 42.91666667 30 44 C30.41022146 48.61499148 29.86835946 50.46971144 27 54 C26.27648573 55.98014432 25.59734611 57.97821315 25 60 C21.535 60.495 21.535 60.495 18 61 C17.67 61.99 17.34 62.98 17 64 C-1.94727645 64.49001577 -23.30784757 63.52172932 -39.1171875 51.84375 C-41.26274491 49.74270623 -42.62501262 47.66349757 -44 45 C-44 44.34 -44 43.68 -44 43 C-44.66 43 -45.32 43 -46 43 C-46.22084624 36.90218999 -46.01167675 31.78357065 -44 26 C-43.34 26 -42.68 26 -42 26 C-41.566875 25.13375 -41.566875 25.13375 -41.125 24.25 C-40.08333333 22.16666667 -39.04166667 20.08333333 -38 18 C-37.34 18 -36.68 18 -36 18 C-35.67 17.34 -35.34 16.68 -35 16 C-31.15994363 12.42176566 -29.13078274 10.97729195 -24 10 C-22.79042308 9.28615133 -21.60538385 8.53019457 -20.4375 7.75 C-14.34736735 3.77111334 -7.35476387 0 0 0 Z " fill="#DE1747" transform="translate(55,13)"/>
<path d="M0 0 C51.66894236 -1.12173723 51.66894236 -1.12173723 70.13671875 14.84765625 C74.15245202 18.94484456 75.81470597 22.30617743 76.3203125 28.01953125 C76 30 76 30 74.7421875 31.76171875 C73 33 73 33 69 33 C68.81566406 32.28714844 68.63132812 31.57429688 68.44140625 30.83984375 C66.08200655 23.04858163 63.17764209 18.90089244 56 15 C26.64845599 1.06935549 -9.17523086 5.24299823 -39.00097656 15.70166016 C-44.84262193 17.86316465 -49.91558092 20.44090664 -55 24 C-57.375 24.75 -57.375 24.75 -59 25 C-56.27933021 19.55866043 -50.49468069 17.09868414 -45.1484375 14.89453125 C-43.0338919 14.05222949 -43.0338919 14.05222949 -41.22265625 13.0625 C-28.37616152 6.92146913 -13.81310171 4.05999428 0 1 C0 0.67 0 0.34 0 0 Z " fill="#C4BFBF" transform="translate(86,0)"/>
<path d="M0 0 C1.23492187 -0.01417969 2.46984375 -0.02835938 3.7421875 -0.04296875 C6.87375626 0.17038293 8.6020668 0.3722188 11.125 2.1875 C11.875 4.8125 11.875 4.8125 12.125 7.1875 C15.425 6.8575 18.725 6.5275 22.125 6.1875 C22.125 6.5175 22.125 6.8475 22.125 7.1875 C20.475 7.1875 18.825 7.1875 17.125 7.1875 C17.00125 7.950625 16.8775 8.71375 16.75 9.5 C16.125 12.1875 16.125 12.1875 14.125 15.1875 C15.445 15.8475 16.765 16.5075 18.125 17.1875 C18.125 18.1775 18.125 19.1675 18.125 20.1875 C15.8125 21.9375 15.8125 21.9375 13.125 23.1875 C12.135 22.8575 11.145 22.5275 10.125 22.1875 C10.455 20.8675 10.785 19.5475 11.125 18.1875 C6.04240995 16.90190369 1.02263697 17.16013782 -4.16796875 17.31445312 C-7.97985224 17.37501576 -9.61795607 17.35886262 -12.875 15.1875 C-12.875 14.5275 -12.875 13.8675 -12.875 13.1875 C-12.215 12.8575 -11.555 12.5275 -10.875 12.1875 C-11.205 10.8675 -11.535 9.5475 -11.875 8.1875 C-8.47068053 5.91795369 -6.70975798 5.82200051 -2.6875 5.5625 C-1.60082031 5.48773438 -0.51414062 5.41296875 0.60546875 5.3359375 C1.43691406 5.28695312 2.26835937 5.23796875 3.125 5.1875 C3.125 4.5275 3.125 3.8675 3.125 3.1875 C-3.31 3.6825 -3.31 3.6825 -9.875 4.1875 C-9.545 3.1975 -9.215 2.2075 -8.875 1.1875 C-5.9336446 -0.2831777 -3.27272595 0.01701001 0 0 Z " fill="#F0DBDF" transform="translate(125.875,27.8125)"/>
<path d="M0 0 C2.97 0 5.94 0 9 0 C8.56766547 1.66801405 8.12880988 3.33433808 7.6875 5 C7.44386719 5.928125 7.20023438 6.85625 6.94921875 7.8125 C5.81371109 11.62556275 4.42841557 15.28691974 3 19 C-0.10385211 19.11613204 -3.20714662 19.18722029 -6.3125 19.25 C-7.19357422 19.28351563 -8.07464844 19.31703125 -8.98242188 19.3515625 C-15.48031942 19.45038984 -15.48031942 19.45038984 -18.109375 17.171875 C-19.39636168 14.0334338 -19.00346581 12.21109059 -18 9 C-16.30685605 6.49414695 -15.05115567 5.27627911 -12.09765625 4.5 C-8.55239935 3.97184255 -5.42216149 3.71668944 -2 5 C-1.34 3.35 -0.68 1.7 0 0 Z M-8 11 C-8 11.99 -8 12.98 -8 14 C-7.01 13.67 -6.02 13.34 -5 13 C-5 12.34 -5 11.68 -5 11 C-5.99 11 -6.98 11 -8 11 Z " fill="#343434" transform="translate(163,47)"/>
<path d="M0 0 C1.794375 -0.01160156 1.794375 -0.01160156 3.625 -0.0234375 C7.21616379 0.40051934 9.15901549 1.16893248 12 3.375 C12 4.035 12 4.695 12 5.375 C6.47322267 5.56892201 2.24385089 5.1229503 -3 3.375 C-0.69047195 6.04213239 1.26333268 7.00354487 4.625 8 C8.91666667 9.29166667 8.91666667 9.29166667 10 10.375 C10.04080783 12.37458364 10.04254356 14.37545254 10 16.375 C3.29627005 19.79818125 -2.61202337 20.40371014 -9.9375 18.5 C-13 17.375 -13 17.375 -15 15.375 C-15 14.385 -15 13.395 -15 12.375 C-12.36 12.375 -9.72 12.375 -7 12.375 C-6.67 13.035 -6.34 13.695 -6 14.375 C-3.36 14.375 -0.72 14.375 2 14.375 C2 13.715 2 13.055 2 12.375 C1.24074219 12.26542969 0.48148438 12.15585937 -0.30078125 12.04296875 C-1.29464844 11.88441406 -2.28851563 11.72585937 -3.3125 11.5625 C-4.29863281 11.41167969 -5.28476563 11.26085938 -6.30078125 11.10546875 C-9.17446928 10.32778472 -10.33081494 9.81896038 -12 7.375 C-12 6.055 -12 4.735 -12 3.375 C-8.18509581 0.18146278 -4.86181307 -0.03143414 0 0 Z " fill="#130607" transform="translate(75,46.625)"/>
<path d="M0 0 C1.65 0 3.3 0 5 0 C5.33 1.32 5.66 2.64 6 4 C6.66 3.67 7.32 3.34 8 3 C8 6.3 8 9.6 8 13 C10.64 12.67 13.28 12.34 16 12 C16.33 8.04 16.66 4.08 17 0 C19.89659753 0.32184417 22.31897331 0.61408488 24.875 2.0625 C26.71462359 5.23074063 26.65060347 8.49239867 26 12 C23.79259319 14.96858157 22.51402627 15.82865791 19 17 C17.51876453 17.0806622 16.03417796 17.10761193 14.55078125 17.09765625 C13.70322266 17.09443359 12.85566406 17.09121094 11.98242188 17.08789062 C10.66081055 17.07532227 10.66081055 17.07532227 9.3125 17.0625 C8.41982422 17.05798828 7.52714844 17.05347656 6.60742188 17.04882812 C4.40491927 17.03705004 2.20245115 17.01911481 0 17 C0 11.39 0 5.78 0 0 Z " fill="#F9F6F7" transform="translate(38,24)"/>
<path d="M0 0 C1.4375 2.3125 1.4375 2.3125 1.5625 5.3125 C0.41934968 8.36090086 -0.57104074 9.96860145 -3.41796875 11.6171875 C-8.26442187 13.18853296 -13.57927246 13.16070894 -18.5625 12.3125 C-23.34553426 9.18036297 -23.34553426 9.18036297 -24.1875 5.8125 C-23.27260168 2.15290671 -21.76666749 1.24835119 -18.5625 -0.6875 C-12.36801965 -3.14415959 -5.77717825 -3.80448324 0 0 Z M-11.5625 3.3125 C-11.8925 4.6325 -12.2225 5.9525 -12.5625 7.3125 C-11.2425 6.9825 -9.9225 6.6525 -8.5625 6.3125 C-8.8925 5.3225 -9.2225 4.3325 -9.5625 3.3125 C-10.2225 3.3125 -10.8825 3.3125 -11.5625 3.3125 Z " fill="#373737" transform="translate(112.5625,53.6875)"/>
<path d="M0 0 C2.97 0.33 5.94 0.66 9 1 C7.02 7.27 5.04 13.54 3 20 C0.03 20 -2.94 20 -6 20 C-5.36757331 15.27497299 -4.08186437 11.09429803 -2.4375 6.625 C-2.20353516 5.98433594 -1.96957031 5.34367187 -1.72851562 4.68359375 C-1.15700381 3.1206839 -0.57915771 1.56009273 0 0 Z " fill="#282828" transform="translate(122,46)"/>
<path d="M0 0 C1.8871875 0.0309375 1.8871875 0.0309375 3.8125 0.0625 C3.8125 0.7225 3.8125 1.3825 3.8125 2.0625 C2.8225 2.0625 1.8325 2.0625 0.8125 2.0625 C0.69132813 2.66578125 0.57015625 3.2690625 0.4453125 3.890625 C0.19394531 5.08945312 0.19394531 5.08945312 -0.0625 6.3125 C-0.22492188 7.10140625 -0.38734375 7.8903125 -0.5546875 8.703125 C-1.17900075 11.03081144 -2.03588542 12.95281952 -3.1875 15.0625 C-5.8275 15.0625 -8.4675 15.0625 -11.1875 15.0625 C-10.64929265 9.788068 -9.61414915 5.72913298 -7.1875 1.0625 C-4.43671116 0.14557039 -2.82801087 -0.04636083 0 0 Z " fill="#2D2D2D" transform="translate(141.1875,50.9375)"/>
<path d="M0 0 C3 1 3 1 3 1 Z " fill="#EFFFFC" transform="translate(57,78)"/>
<path d="M0 0 C3 1 3 1 3 1 Z " fill="#EDFEF9" transform="translate(35,76)"/>
<path d="M0 0 C3 1 3 1 3 1 Z " fill="#EEFFFF" transform="translate(145,36)"/>
<path d="M0 0 C2 1 2 1 2 1 Z " fill="#EBFFFE" transform="translate(67,78)"/>
<path d="M0 0 C2 1 2 1 2 1 Z " fill="#E7FFF9" transform="translate(39,77)"/>
<path d="M0 0 C2 1 2 1 2 1 Z " fill="#EBFFFB" transform="translate(20,70)"/>
<path d="M0 0 C2 1 2 1 2 1 Z " fill="#ECFAF6" transform="translate(106,47)"/>
<path d="" fill="#ECFFF8" transform="translate(0,0)"/>
<path d="" fill="#F0FFFE" transform="translate(0,0)"/>
<path d="M0 0 C2 1 2 1 2 1 Z " fill="#E4FCF1" transform="translate(28,21)"/>
<path d="M0 0 C2 1 2 1 2 1 Z " fill="#E7FEF7" transform="translate(26,17)"/>
<path d="" fill="#EFFEFB" transform="translate(0,0)"/>
<path d="" fill="#E9E9E9" transform="translate(0,0)"/>
<path d="" fill="#E7FFF7" transform="translate(0,0)"/>
<path d="" fill="#F0FFFF" transform="translate(0,0)"/>
<path d="" fill="#EBFEF8" transform="translate(0,0)"/>
<path d="" fill="#E7FAF4" transform="translate(0,0)"/>
<path d="" fill="#FFE6EE" transform="translate(0,0)"/>
<path d="" fill="#E2F7F2" transform="translate(0,0)"/>
<path d="" fill="#EBEFEE" transform="translate(0,0)"/>
<path d="" fill="#F0FFFE" transform="translate(0,0)"/>
<path d="" fill="#DEFFF9" transform="translate(0,0)"/>
<path d="" fill="#F0FFFF" transform="translate(0,0)"/>
<path d="" fill="#EFFEF7" transform="translate(0,0)"/>
<path d="" fill="#E3FFFF" transform="translate(0,0)"/>
<path d="" fill="#D6FEF5" transform="translate(0,0)"/>
<path d="" fill="#EFFFFA" transform="translate(0,0)"/>
<path d="" fill="#EDFFFF" transform="translate(0,0)"/>
<path d="" fill="#EAEEED" transform="translate(0,0)"/>
<path d="" fill="#E0FCED" transform="translate(0,0)"/>
<path d="" fill="#ECF0F1" transform="translate(0,0)"/>
<path d="" fill="#EEFEFB" transform="translate(0,0)"/>
<path d="" fill="#E8FCFA" transform="translate(0,0)"/>
<path d="" fill="#EAFDF9" transform="translate(0,0)"/>
<path d="" fill="#ECFFFB" transform="translate(0,0)"/>
<path d="" fill="#EDFFF8" transform="translate(0,0)"/>
<path d="" fill="#EFFFFE" transform="translate(0,0)"/>
</svg>
