<?xml version="1.0" encoding="UTF-8"?>
<svg version="1.1" xmlns="http://www.w3.org/2000/svg" width="528" height="246">
<path d="M0 0 C174.24 0 348.48 0 528 0 C528 81.18 528 162.36 528 246 C353.76 246 179.52 246 0 246 C0 164.82 0 83.64 0 0 Z " fill="#F8F8F8" transform="translate(0,0)"/>
<path d="M0 0 C3.75670157 0.01715342 7.51276796 0.0068852 11.26944828 -0.01033688 C28.30632528 -0.07635679 44.90114588 0.54767223 61.74658203 3.39111328 C63.21729276 3.62741279 64.68807326 3.86327853 66.15893555 4.09863281 C76.65394042 5.83808984 86.84421055 8.73292933 97.06445312 11.64355469 C98.90049975 12.15529461 100.74244687 12.64619565 102.58886719 13.11914062 C108.23762454 14.57622686 113.33285664 16.30383289 118.49658203 19.01611328 C119.16705566 19.3616626 119.8375293 19.70721191 120.52832031 20.06323242 C132.03171417 26.07349311 142.43811879 32.21878845 151.74658203 41.39111328 C152.69597656 42.23222656 152.69597656 42.23222656 153.66455078 43.09033203 C161.47446741 50.21063129 167.59283857 60.81513153 168.74658203 71.39111328 C168.77220425 73.46258414 168.77841229 75.53434472 168.77001953 77.60595703 C168.76663574 78.68868896 168.76325195 79.7714209 168.75976562 80.88696289 C168.75541504 81.71333252 168.75106445 82.53970215 168.74658203 83.39111328 C167.68467651 83.45842651 167.68467651 83.45842651 166.60131836 83.52709961 C151.85600264 84.48344308 137.2855891 85.74930633 122.69995117 88.14746094 C120.74658203 88.39111328 120.74658203 88.39111328 116.74658203 88.39111328 C116.70919922 87.72724609 116.67181641 87.06337891 116.63330078 86.37939453 C116.25132099 81.2488816 115.82481155 77.6738674 112.74658203 73.39111328 C112.74658203 72.73111328 112.74658203 72.07111328 112.74658203 71.39111328 C111.33056489 70.91003054 109.91373766 70.43133187 108.49658203 69.95361328 C107.70767578 69.68677734 106.91876953 69.41994141 106.10595703 69.14501953 C105.32736328 68.89623047 104.54876953 68.64744141 103.74658203 68.39111328 C103.19736084 68.21475342 102.64813965 68.03839355 102.08227539 67.85668945 C98.73816382 67.19010424 95.41277968 67.20812969 92.01611328 67.18798828 C91.26625656 67.18228821 90.51639984 67.17658813 89.74382019 67.17071533 C88.15775961 67.16128497 86.57167962 67.15473917 84.9855957 67.15087891 C82.58460274 67.14121599 80.18448215 67.11019289 77.78369141 67.07861328 C64.40028543 66.84055568 64.40028543 66.84055568 52.80908203 72.89111328 C50.66379153 75.40520884 50.66379153 75.40520884 48.74658203 78.39111328 C49.72498047 78.37951172 50.70337891 78.36791016 51.71142578 78.35595703 C58.80178333 78.30715418 65.71117425 78.40368763 72.74658203 79.39111328 C72.74658203 78.73111328 72.74658203 78.07111328 72.74658203 77.39111328 C76.3834374 74.96654303 79.10890982 75.09342921 83.30908203 75.14111328 C84.33678711 75.12951172 84.33678711 75.12951172 85.38525391 75.11767578 C90.49319533 75.13772658 90.49319533 75.13772658 92.74658203 77.39111328 C92.74658203 78.38111328 92.74658203 79.37111328 92.74658203 80.39111328 C90.30950857 80.83109709 87.87200154 81.26835624 85.43408203 81.70361328 C84.68022217 81.83896484 83.9263623 81.97431641 83.1496582 82.11376953 C78.9732419 82.85418683 74.79588151 83.54394527 70.59814453 84.15283203 C69.75678955 84.27682373 68.91543457 84.40081543 68.04858398 84.52856445 C66.42335624 84.7652481 64.79689579 84.99365688 63.16918945 85.21264648 C57.67094678 86.02050102 53.04470951 87.31538524 48.80908203 91.14111328 C47.21177613 94.52364342 47.85514338 96.82535866 48.74658203 100.39111328 C49.70299761 101.75604808 50.69644935 103.09689571 51.74658203 104.39111328 C51.15047119 104.60614502 50.55436035 104.82117676 49.94018555 105.04272461 C17.48186006 116.81794388 -14.31631085 130.34502561 -41.25341797 152.39111328 C-41.02138672 153.24962891 -41.02138672 153.24962891 -40.78466797 154.12548828 C-39.67975052 158.83763622 -39.08627069 163.15274863 -41.39404297 167.57861328 C-46.23838024 173.78689017 -53.4988904 177.46733993 -61.26245117 178.71362305 C-65.59229811 179.45799636 -66.88547781 179.91059884 -69.67919922 183.55908203 C-70.33742529 184.88476781 -70.96586444 186.22560179 -71.56591797 187.57861328 C-71.88625 188.20703125 -72.20658203 188.83544922 -72.53662109 189.48291016 C-75.8143404 196.39360259 -76.92902336 203.91813839 -78.25341797 211.39111328 C-137.75266162 211.97909516 -137.75266162 211.97909516 -162.97021484 206.85498047 C-164.59445297 206.52499197 -166.22105373 206.20654168 -167.84912109 205.89599609 C-201.00019822 199.55863471 -236.98522484 187.97913276 -258.42919922 160.14111328 C-266.84704988 147.45124848 -269.51958636 132.99498759 -266.60498047 118.07080078 C-262.87614563 106.11940707 -256.34586309 95.82655993 -248.25341797 86.39111328 C-247.42002547 85.32865969 -246.58668341 84.26616653 -245.75341797 83.20361328 C-243.12198476 80.24325092 -240.3391042 77.71591156 -237.32373047 75.15673828 C-236.04649152 74.06747035 -234.78679189 72.95674247 -233.55810547 71.81298828 C-200.49439416 41.26982896 -151.45079 22.6556195 -108.10107422 13.24658203 C-104.40498683 12.42481235 -100.78053018 11.4503602 -97.12841797 10.45361328 C-89.32321642 8.4340224 -81.39186748 7.12965748 -73.44091797 5.82861328 C-72.25159668 5.63082275 -71.06227539 5.43303223 -69.83691406 5.22924805 C-65.64845247 4.56408633 -61.45515068 3.96530555 -57.25341797 3.39111328 C-56.33220154 3.2615625 -55.41098511 3.13201172 -54.46185303 2.99853516 C-36.26584047 0.50006836 -18.32758396 -0.08439343 0 0 Z " fill="#DA0136" transform="translate(287.25341796875,23.60888671875)"/>
<path d="M0 0 C12.87 -0.061875 12.87 -0.061875 26 -0.125 C28.69414062 -0.14320801 31.38828125 -0.16141602 34.1640625 -0.18017578 C36.31770631 -0.18602121 38.47135234 -0.19111665 40.625 -0.1953125 C42.28015625 -0.2106604 42.28015625 -0.2106604 43.96875 -0.22631836 C54.39536279 -0.22866247 64.84619203 1.46663769 72.8984375 8.70703125 C78.88574592 15.40989604 79.47465428 21.58527929 79.234375 30.40234375 C78.79035645 37.21802843 76.77716217 40.49933189 71.8125 45.25 C67.7119135 48.68150857 64.11272081 50.60637782 59 52 C58.35849503 52.17836395 57.71699005 52.35672791 57.05604553 52.54049683 C50.72594299 54.12525323 44.68558373 54.25968111 38.18359375 54.1953125 C37.20974731 54.19329834 36.23590088 54.19128418 35.23254395 54.18920898 C31.63414727 54.17883452 28.03581833 54.15091275 24.4375 54.125 C16.373125 54.08375 8.30875 54.0425 0 54 C0 36.18 0 18.36 0 0 Z " fill="#FCFAFA" transform="translate(105,76)"/>
<path d="M0 0 C8.25 0 16.5 0 25 0 C19 18 13 36 7 54 C-0.59 54 -8.18 54 -16 54 C-16 53.01 -16 52.02 -16 51 C-16.91265625 51.433125 -16.91265625 51.433125 -17.84375 51.875 C-26.64110989 55.60094066 -36.27770187 56.78060873 -45.625 54.3046875 C-49.944459 52.35765863 -54.126456 49.46040979 -56 45 C-56.95717979 38.98232051 -57.10255575 33.02809029 -54 27.625 C-48.95250032 20.89973986 -43.16411867 16.18491783 -35 14 C-32.00601888 13.58976942 -29.08150536 13.52386085 -26.0625 13.5625 C-24.88107422 13.56733398 -24.88107422 13.56733398 -23.67578125 13.57226562 C-17.65469619 13.71681154 -13.23533436 15.00838036 -8 18 C-7.34 18 -6.68 18 -6 18 C-4.02 12.06 -2.04 6.12 0 0 Z " fill="#030303" transform="translate(481,148)"/>
<path d="M0 0 C1.26908203 -0.020625 2.53816406 -0.04125 3.84570312 -0.0625 C15.10135106 -0.10870071 26.02707743 0.95825547 35.0625 8.25 C38.00911449 11.28869619 38.0625 11.82497271 38.0625 16.25 C33.95856988 16.36591764 29.85505894 16.43715601 25.75 16.5 C24.58275391 16.53351563 23.41550781 16.56703125 22.21289062 16.6015625 C20.53549805 16.62089844 20.53549805 16.62089844 18.82421875 16.640625 C17.79256592 16.66157227 16.76091309 16.68251953 15.69799805 16.70410156 C13.0625 16.25 13.0625 16.25 11.38989258 14.28808594 C10.95185303 13.61551758 10.51381348 12.94294922 10.0625 12.25 C6.50204823 11.06318274 3.62441663 11.15310168 -0.125 11.1875 C-1.39730469 11.19652344 -2.66960937 11.20554688 -3.98046875 11.21484375 C-4.95628906 11.22644531 -5.93210938 11.23804688 -6.9375 11.25 C-7.5975 12.57 -8.2575 13.89 -8.9375 15.25 C-3.93324955 17.57270295 0.73346812 18.92792661 6.125 20 C14.66753143 21.85535745 24.73798102 24.66894176 30.90625 31.203125 C32.98056558 34.8752242 32.95954732 38.17981515 32.0625 42.25 C27.77601737 50.41472881 19.67813255 53.18899744 11.32275391 55.79199219 C6.25572395 56.81875263 0.96043478 56.51670387 -4.19702148 56.54516602 C-5.63299485 56.55659457 -7.06892887 56.57689885 -8.50463867 56.60668945 C-20.33331054 56.85160932 -32.5290757 56.32670922 -41.66796875 47.8125 C-44.49206484 44.33668943 -45.18593715 41.72186872 -44.9375 37.25 C-36.23769136 36.23713247 -27.68257107 36.14378456 -18.9375 36.25 C-18.669375 37.19875 -18.40125 38.1475 -18.125 39.125 C-17.18763412 42.50267273 -17.18763412 42.50267273 -13.9375 44.25 C-11.24522741 44.47171657 -8.6903359 44.57454269 -6 44.5625 C-5.28392578 44.57861328 -4.56785156 44.59472656 -3.83007812 44.61132812 C0.42186425 44.61526876 2.98976687 44.29064193 6.0625 41.25 C6.16599047 39.29123542 6.16599047 39.29123542 5.0625 37.25 C2.45245334 36.19494001 0.08367536 35.43665709 -2.625 34.75 C-3.38796387 34.53988281 -4.15092773 34.32976562 -4.93701172 34.11328125 C-7.95050282 33.28612212 -10.973422 32.49838192 -13.99951172 31.71875 C-29.65752911 27.67083033 -29.65752911 27.67083033 -34.375 21.3125 C-35.21695196 18.22534282 -35.49479594 16.46993208 -34.9375 13.25 C-30.67756933 5.94323149 -24.80022752 3.46608722 -16.9375 1.25 C-11.51460606 -0.55763131 -5.67444973 0.02243974 0 0 Z " fill="#040102" transform="translate(214.9375,146.75)"/>
<path d="M0 0 C4.22765971 3.25412613 6.59262251 5.76089604 7.39453125 11.28515625 C6.94182749 17.5277028 4.19816983 22.4453931 -0.35546875 26.66015625 C-9.86975902 34.14147851 -20.85536435 35.75201374 -32.60546875 35.66015625 C-34.08370117 35.67175781 -34.08370117 35.67175781 -35.59179688 35.68359375 C-45.91897391 35.65621886 -54.16248569 34.32172237 -62.16796875 27.41015625 C-65.1210155 23.38327432 -65.77626598 19.61263025 -65.5703125 14.7109375 C-64.51519982 8.67733198 -60.953531 4.67720505 -56.10546875 1.16015625 C-54.48520003 0.1990244 -52.83773752 -0.71753796 -51.16796875 -1.58984375 C-49.99427734 -2.21246094 -49.99427734 -2.21246094 -48.796875 -2.84765625 C-34.97083933 -8.72320781 -12.6093174 -8.53056385 0 0 Z " fill="#040404" transform="translate(324.16796875,167.58984375)"/>
<path d="M0 0 C2.43939666 0.4250754 4.58315065 0.47049043 7.05078125 0.37109375 C11.58992832 0.23180584 15.40350312 1.47371672 19.71875 2.77734375 C23.30204852 3.62641872 26.57070318 3.47758413 30.2265625 3.33984375 C32.48828125 3.43359375 32.48828125 3.43359375 35.92578125 4.93359375 C40.16581384 6.71887063 43.30766651 6.59698053 47.83984375 6.34375 C50.82255051 6.44493327 52.76972012 7.24368041 55.48828125 8.43359375 C56.97920839 8.82419624 58.47978772 9.18005373 59.98828125 9.49609375 C60.72046875 9.65207031 61.45265625 9.80804688 62.20703125 9.96875 C63.77981225 10.28923106 65.3620616 10.56535428 66.94921875 10.8046875 C69.93197855 11.54349416 72.02534214 12.78744288 74.61328125 14.43359375 C77.29700542 16.13029474 79.46598903 17.42616301 82.48828125 18.43359375 C82.48828125 17.77359375 82.48828125 17.11359375 82.48828125 16.43359375 C87.68650797 17.79503408 90.58371998 19.90089546 94.48828125 23.43359375 C93.49828125 23.76359375 92.50828125 24.09359375 91.48828125 24.43359375 C89.6640625 23.4375 89.6640625 23.4375 87.80078125 21.99609375 C86.86685547 21.28646484 86.86685547 21.28646484 85.9140625 20.5625 C85.20830078 20.00369141 85.20830078 20.00369141 84.48828125 19.43359375 C83.82828125 20.75359375 83.16828125 22.07359375 82.48828125 23.43359375 C81.49828125 23.10359375 80.50828125 22.77359375 79.48828125 22.43359375 C79.15828125 21.44359375 78.82828125 20.45359375 78.48828125 19.43359375 C75.95082886 17.64797911 74.50276501 17.43359375 71.36328125 17.43359375 C70.41453125 17.43359375 69.46578125 17.43359375 68.48828125 17.43359375 C67.82828125 16.77359375 67.16828125 16.11359375 66.48828125 15.43359375 C64.41954091 14.79107025 64.41954091 14.79107025 62.48828125 14.43359375 C62.48828125 13.77359375 62.48828125 13.11359375 62.48828125 12.43359375 C60.50828125 11.93859375 60.50828125 11.93859375 58.48828125 11.43359375 C58.81828125 12.42359375 59.14828125 13.41359375 59.48828125 14.43359375 C57.50828125 13.93859375 57.50828125 13.93859375 55.48828125 13.43359375 C55.48828125 12.77359375 55.48828125 12.11359375 55.48828125 11.43359375 C54.16828125 11.76359375 52.84828125 12.09359375 51.48828125 12.43359375 C51.48828125 11.77359375 51.48828125 11.11359375 51.48828125 10.43359375 C49.83828125 10.76359375 48.18828125 11.09359375 46.48828125 11.43359375 C46.48828125 10.77359375 46.48828125 10.11359375 46.48828125 9.43359375 C45.93140625 9.78421875 45.37453125 10.13484375 44.80078125 10.49609375 C41.05056854 12.01645025 38.34684057 10.75793838 34.67578125 9.37109375 C31.4813664 8.43155997 28.78877409 8.33845364 25.4765625 8.42578125 C22.43375669 8.43773726 19.49465655 7.88455005 16.48828125 7.43359375 C13.54215699 7.15845284 10.59414329 6.92212823 7.64453125 6.6875 C2.92230443 6.30761789 -1.79443729 5.87003515 -6.51171875 5.43359375 C-6.51171875 6.09359375 -6.51171875 6.75359375 -6.51171875 7.43359375 C-10.77698011 7.52837734 -14.83343447 7.30103455 -19.07421875 6.80859375 C-24.59828883 6.2788884 -28.24408296 6.88205348 -32.88671875 10.05859375 C-33.69109375 10.73921875 -33.69109375 10.73921875 -34.51171875 11.43359375 C-34.49109375 10.62921875 -34.47046875 9.82484375 -34.44921875 8.99609375 C-34.21538254 6.5000449 -34.21538254 6.5000449 -35.51171875 5.43359375 C-39.60961544 5.81302863 -42.0513081 6.12665332 -45.51171875 8.43359375 C-46.33671875 8.24796875 -47.16171875 8.06234375 -48.01171875 7.87109375 C-48.83671875 7.72671875 -49.66171875 7.58234375 -50.51171875 7.43359375 C-52.34719865 8.7673795 -52.34719865 8.7673795 -53.51171875 10.43359375 C-50.03697508 11.59184164 -47.38965055 11.5145132 -43.7265625 11.4609375 C-42.37825772 11.4482973 -41.0299503 11.4359359 -39.68164062 11.42382812 C-37.55940519 11.39895337 -35.43730676 11.37090705 -33.31518555 11.33764648 C-31.26480209 11.30751821 -29.2145961 11.28969821 -27.1640625 11.2734375 C-25.93679443 11.25659912 -24.70952637 11.23976074 -23.44506836 11.22241211 C-20.51171875 11.43359375 -20.51171875 11.43359375 -18.51171875 13.43359375 C-19.11273407 13.43723938 -19.71374939 13.44088501 -20.33297729 13.44464111 C-49.29018957 13.63729662 -77.85926489 13.98684062 -106.51171875 18.43359375 C-107.65705078 18.60294434 -108.80238281 18.77229492 -109.98242188 18.94677734 C-120.95501298 20.57606989 -131.77319263 22.50447997 -142.48925781 25.38525391 C-145.75104077 26.25137269 -149.02930779 27.01276318 -152.32400513 27.74502563 C-162.13103271 29.94576664 -171.61942444 32.84447364 -181.13671875 36.05859375 C-181.91619873 36.31993103 -182.69567871 36.58126831 -183.4987793 36.8505249 C-196.84040687 41.33844159 -209.79259086 46.38198717 -222.51171875 52.43359375 C-223.36572266 52.83255859 -224.21972656 53.23152344 -225.09960938 53.64257812 C-237.19294179 59.31904028 -248.46803857 65.90851561 -259.64013672 73.22216797 C-261.89745796 74.68327259 -264.1923808 76.07334585 -266.51171875 77.43359375 C-265.16599283 73.39641598 -262.48058272 71.80827834 -259.0703125 69.58203125 C-257.3559936 68.50112441 -257.3559936 68.50112441 -256.51171875 66.43359375 C-253.37347997 64.50236989 -250.4867676 62.77486085 -247.01171875 61.55859375 C-243.83555247 60.12931892 -241.67639408 58.05539078 -239.16015625 55.67578125 C-237.51171875 54.43359375 -237.51171875 54.43359375 -234.51171875 54.43359375 C-234.51171875 53.77359375 -234.51171875 53.11359375 -234.51171875 52.43359375 C-232.87381163 51.38715309 -231.20163854 50.39377545 -229.51171875 49.43359375 C-228.87234375 48.89734375 -228.23296875 48.36109375 -227.57421875 47.80859375 C-225.51171875 46.43359375 -225.51171875 46.43359375 -222.71875 46.05859375 C-219.12079562 45.35740898 -217.13053499 44.13933993 -214.13671875 42.05859375 C-209.64775074 39.0700145 -205.5871072 37.1837277 -200.51171875 35.43359375 C-199.64546875 34.89734375 -198.77921875 34.36109375 -197.88671875 33.80859375 C-195.07744472 32.18217194 -192.70650292 31.89949977 -189.51171875 31.43359375 C-187.82594164 30.81684603 -186.15723837 30.15087153 -184.51171875 29.43359375 C-182.01171875 28.43359375 -182.01171875 28.43359375 -179.51171875 27.43359375 C-178.60421875 27.06234375 -177.69671875 26.69109375 -176.76171875 26.30859375 C-174.51171875 25.43359375 -174.51171875 25.43359375 -173.51171875 25.43359375 C-171.84005952 24.97214615 -170.17418447 24.48963826 -168.51171875 23.99609375 C-167.60421875 23.72925781 -166.69671875 23.46242188 -165.76171875 23.1875 C-163.56788304 22.63836345 -163.56788304 22.63836345 -162.51171875 21.43359375 C-160.84109375 21.49546875 -160.84109375 21.49546875 -159.13671875 21.55859375 C-155.57222429 21.83110404 -155.57222429 21.83110404 -153.82421875 19.87109375 C-153.39109375 19.39671875 -152.95796875 18.92234375 -152.51171875 18.43359375 C-150.38671875 18.80859375 -150.38671875 18.80859375 -148.51171875 19.43359375 C-148.01671875 18.93859375 -148.01671875 18.93859375 -147.51171875 18.43359375 C-144.86007282 16.93099439 -143.6370713 16.43359375 -140.51171875 16.43359375 C-137.40948226 15.61055142 -134.35176456 14.69638488 -131.2890625 13.73828125 C-123.08023447 11.20222056 -114.69680841 8.81668505 -106.13671875 7.87109375 C-102.47975475 7.53328078 -102.47975475 7.53328078 -98.94921875 6.37109375 C-95.30624275 5.37755484 -92.26865398 5.43359375 -88.51171875 5.43359375 C-87.56296875 5.10359375 -86.61421875 4.77359375 -85.63671875 4.43359375 C-82.75888356 3.51268649 -81.14059552 3.35203044 -78.19921875 3.43359375 C-75.09486954 3.51056109 -72.51031745 3.29069341 -69.51171875 2.49609375 C-64.48023293 1.24695751 -59.43992612 1.06914701 -54.28613281 0.83056641 C-49.22966046 0.58025681 -44.27600356 0.05353583 -39.26171875 -0.62890625 C-26.28054432 -2.30428955 -12.85898105 -2.63727334 0 0 Z " fill="#D0D0D0" transform="translate(329.51171875,10.56640625)"/>
<path d="M0 0 C2.41858991 0.0085153 4.83481578 -0.02032684 7.25317383 -0.05200195 C17.3238336 -0.10138763 25.41694922 0.38928855 33.5715332 6.91088867 C36.88323684 11.54029258 36.19266885 17.56586654 36.17700195 23.00854492 C36.19363825 25.23908883 36.21808999 27.46959128 36.2512207 29.69995117 C36.25081787 30.68294189 36.25041504 31.66593262 36.25 32.67871094 C36.50388683 35.61225555 37.26433593 37.78347221 38.48950195 40.44604492 C34.71892648 40.56202145 30.94880802 40.63321888 27.17700195 40.69604492 C26.10514648 40.72956055 25.03329102 40.76307617 23.92895508 40.79760742 C22.38691406 40.81694336 22.38691406 40.81694336 20.8137207 40.83666992 C19.86585693 40.85761719 18.91799316 40.87856445 17.94140625 40.90014648 C15.48950195 40.44604492 15.48950195 40.44604492 13.65673828 38.42163086 C13.27155029 37.7696875 12.8863623 37.11774414 12.48950195 36.44604492 C11.84883789 36.72319336 11.20817383 37.0003418 10.5480957 37.28588867 C9.2506543 37.82922852 9.2506543 37.82922852 7.92700195 38.38354492 C7.08008789 38.74319336 6.23317383 39.1028418 5.3605957 39.47338867 C-4.77087978 42.90568445 -17.79558233 43.26884189 -27.5456543 38.64526367 C-30.36209079 36.92628553 -31.97558132 35.37634049 -33.51049805 32.44604492 C-34.23480966 28.58304965 -33.90809887 27.05664619 -31.76049805 23.75854492 C-22.54295663 17.19990968 -8.83525548 17.22151752 2.13647461 15.76147461 C5.25717832 15.34313583 8.37331456 14.89668048 11.48950195 14.44604492 C11.48950195 13.12604492 11.48950195 11.80604492 11.48950195 10.44604492 C8.90553516 10.36492038 6.32412627 10.30549744 3.73950195 10.25854492 C3.00989258 10.2334082 2.2802832 10.20827148 1.52856445 10.18237305 C-2.75327194 10.03189574 -2.75327194 10.03189574 -6.41479492 11.9597168 C-9.13182858 13.88670898 -10.64003979 13.72146182 -13.93237305 13.52026367 C-14.95717773 13.46547852 -15.98198242 13.41069336 -17.0378418 13.35424805 C-18.10131836 13.28141602 -19.16479492 13.20858398 -20.26049805 13.13354492 C-21.33944336 13.07231445 -22.41838867 13.01108398 -23.5300293 12.94799805 C-26.19136911 12.79491213 -28.85093801 12.62709032 -31.51049805 12.44604492 C-29.8792006 8.01301239 -28.56398998 6.0333802 -24.51049805 3.44604492 C-16.51782751 -0.12085958 -8.59343759 -0.04612174 0 0 Z " fill="#FCF9F9" transform="translate(230.510498046875,89.553955078125)"/>
<path d="M0 0 C0 4.95 0 9.9 0 15 C4.29 15 8.58 15 13 15 C13 18.63 13 22.26 13 26 C8.71 26 4.42 26 0 26 C0 31.61 0 37.22 0 43 C3.96 43 7.92 43 12 43 C14 50.625 14 50.625 14 54 C8.3055734 54.80239648 2.74880648 55.210759 -3 55.25 C-3.75539063 55.270625 -4.51078125 55.29125 -5.2890625 55.3125 C-11.21253768 55.35321117 -16.97767866 54.57358466 -21.6640625 50.58300781 C-24.14778378 47.63994335 -24.11993223 44.78881811 -24.09765625 41.11328125 C-24.09443359 40.17548828 -24.09121094 39.23769531 -24.08789062 38.27148438 C-24.07951172 37.29501953 -24.07113281 36.31855469 -24.0625 35.3125 C-24.05798828 34.32443359 -24.05347656 33.33636719 -24.04882812 32.31835938 C-24.0370432 29.87888042 -24.01910783 27.43943259 -24 25 C-26.97 25 -29.94 25 -33 25 C-33 21.7 -33 18.4 -33 15 C-30.03 15 -27.06 15 -24 15 C-24 12.36 -24 9.72 -24 7 C-20.75362269 5.82307643 -17.5023602 4.66027726 -14.25 3.5 C-13.32960938 3.16613281 -12.40921875 2.83226563 -11.4609375 2.48828125 C-10.57148438 2.17246094 -9.68203125 1.85664062 -8.765625 1.53125 C-7.94868164 1.23798828 -7.13173828 0.94472656 -6.29003906 0.64257812 C-4 0 -4 0 0 0 Z " fill="#FCF8F9" transform="translate(311,76)"/>
<path d="M0 0 C7.92 0 15.84 0 24 0 C21.74965197 10.12656614 21.74965197 10.12656614 20.41186523 14.04492188 C20.11493271 14.92192749 19.81800018 15.79893311 19.5120697 16.70251465 C19.19742264 17.61537231 18.88277557 18.52822998 18.55859375 19.46875 C18.06698509 20.91102966 18.06698509 20.91102966 17.56544495 22.38244629 C16.87770913 24.39669876 16.18764872 26.41015891 15.49536133 28.42285156 C14.43169905 31.51687403 13.37645934 34.6136777 12.32226562 37.7109375 C11.65153316 39.67204317 10.98032638 41.63298669 10.30859375 43.59375 C9.99192245 44.52280151 9.67525116 45.45185303 9.34898376 46.40905762 C8.90831322 47.68674011 8.90831322 47.68674011 8.45874023 48.99023438 C8.20051987 49.74252319 7.9422995 50.49481201 7.67625427 51.26989746 C7 53 7 53 6 54 C4.21928754 54.08726223 2.4351686 54.10699041 0.65234375 54.09765625 C-0.42724609 54.09443359 -1.50683594 54.09121094 -2.61914062 54.08789062 C-3.75544922 54.07951172 -4.89175781 54.07113281 -6.0625 54.0625 C-7.20267578 54.05798828 -8.34285156 54.05347656 -9.51757812 54.04882812 C-12.34510604 54.03699746 -15.17251896 54.01967618 -18 54 C-16.10473493 46.72105501 -13.93366673 39.60943278 -11.42578125 32.51953125 C-11.09708542 31.58066574 -10.76838959 30.64180023 -10.42973328 29.67448425 C-9.39419987 26.71923157 -8.35345189 23.76584785 -7.3125 20.8125 C-6.60316762 18.79113771 -5.8941802 16.76965434 -5.18554688 14.74804688 C-3.46164432 9.83038802 -1.73067906 4.91529884 0 0 Z " fill="#030303" transform="translate(357,148)"/>
<path d="M0 0 C1.29019043 -0.01365601 1.29019043 -0.01365601 2.60644531 -0.02758789 C8.34297604 -0.00033993 13.43886764 0.83729299 19 2.25 C19 2.58 19 2.91 19 3.25 C12.44348809 4.14909973 6.28427804 4.25338936 -0.29345703 3.7590332 C-13.85778803 2.77407141 -26.55150851 4.56912977 -39.92529297 6.7800293 C-43.57695392 7.33818773 -47.22661028 7.70893338 -50.90429688 8.04394531 C-53.42559169 8.29184522 -55.8893069 8.70081899 -58.375 9.1875 C-73.91567134 12.12466496 -73.91567134 12.12466496 -81.1875 12.6875 C-85.35942687 13.04911164 -88.91482063 14.0805296 -92.796875 15.62890625 C-95 16.25 -95 16.25 -97.80859375 16.23046875 C-106.29418446 16.28240015 -115.16408594 19.65074046 -122.73828125 23.30078125 C-128.09166038 25.54753622 -134.18042542 27.25 -140 27.25 C-140 27.91 -140 28.57 -140 29.25 C-141.45833333 29.6875 -142.91666667 30.125 -144.375 30.5625 C-145.2825 30.83578125 -146.19 31.1090625 -147.125 31.390625 C-148.99771673 31.95040446 -150.87264098 32.50286756 -152.75 33.046875 C-153.61625 33.29953125 -154.4825 33.5521875 -155.375 33.8125 C-156.16648437 34.04066406 -156.95796875 34.26882812 -157.7734375 34.50390625 C-160.02203478 35.1972235 -160.02203478 35.1972235 -162.09375 36.3125 C-164 37.25 -164 37.25 -167.125 37.6875 C-168.548125 37.9659375 -168.548125 37.9659375 -170 38.25 C-170.66 39.24 -171.32 40.23 -172 41.25 C-173.66625977 42.13452148 -173.66625977 42.13452148 -175.69140625 42.87109375 C-176.4587207 43.16040771 -177.22603516 43.44972168 -178.01660156 43.74780273 C-178.85674805 44.05790283 -179.69689453 44.36800293 -180.5625 44.6875 C-203.66012793 53.5791961 -225.93629264 64.71755443 -246 79.25 C-246 76.25 -246 76.25 -244.8125 74.75 C-243 73.25 -243 73.25 -240.375 71.6875 C-237.88809625 70.47087094 -237.88809625 70.47087094 -237 68.25 C-233.86176122 66.31877614 -230.97504885 64.5912671 -227.5 63.375 C-224.32383372 61.94572517 -222.16467533 59.87179703 -219.6484375 57.4921875 C-218 56.25 -218 56.25 -215 56.25 C-215 55.59 -215 54.93 -215 54.25 C-213.36209288 53.20355934 -211.68991979 52.2101817 -210 51.25 C-209.360625 50.71375 -208.72125 50.1775 -208.0625 49.625 C-206 48.25 -206 48.25 -203.20703125 47.875 C-199.60907687 47.17381523 -197.61881624 45.95574618 -194.625 43.875 C-190.13603199 40.88642075 -186.07538845 39.00013395 -181 37.25 C-180.13375 36.71375 -179.2675 36.1775 -178.375 35.625 C-175.56572597 33.99857819 -173.19478417 33.71590602 -170 33.25 C-168.31422289 32.63325228 -166.64551962 31.96727778 -165 31.25 C-162.5 30.25 -162.5 30.25 -160 29.25 C-159.0925 28.87875 -158.185 28.5075 -157.25 28.125 C-155 27.25 -155 27.25 -154 27.25 C-152.32834077 26.7885524 -150.66246572 26.30604451 -149 25.8125 C-148.0925 25.54566406 -147.185 25.27882813 -146.25 25.00390625 C-144.05616429 24.4547697 -144.05616429 24.4547697 -143 23.25 C-141.329375 23.311875 -141.329375 23.311875 -139.625 23.375 C-136.06050554 23.64751029 -136.06050554 23.64751029 -134.3125 21.6875 C-133.879375 21.213125 -133.44625 20.73875 -133 20.25 C-130.875 20.625 -130.875 20.625 -129 21.25 C-128.505 20.755 -128.505 20.755 -128 20.25 C-125.34835407 18.74740064 -124.12535255 18.25 -121 18.25 C-117.89776351 17.42695767 -114.84004581 16.51279113 -111.77734375 15.5546875 C-103.56851572 13.01862681 -95.18508966 10.6330913 -86.625 9.6875 C-82.968036 9.34968703 -82.968036 9.34968703 -79.4375 8.1875 C-75.794524 7.19396109 -72.75693523 7.25 -69 7.25 C-68.05125 6.92 -67.1025 6.59 -66.125 6.25 C-63.24716481 5.32909274 -61.62887677 5.16843669 -58.6875 5.25 C-55.58315079 5.32696734 -52.9985987 5.10709966 -50 4.3125 C-44.96851418 3.06336376 -39.92820737 2.88555326 -34.77441406 2.64697266 C-29.71796276 2.39666411 -24.76424541 1.87017952 -19.75 1.1875 C-13.16138581 0.33445438 -6.6425531 0.03336496 0 0 Z " fill="#CECECE" transform="translate(310,8.75)"/>
<path d="M0 0 C8.25 0 16.5 0 25 0 C20.66666667 13 16.33333333 26 12 39 C4.08 39 -3.84 39 -12 39 C-11.24362442 33.70537092 -10.25320944 29.2704436 -8.49609375 24.31640625 C-8.2533522 23.61603745 -8.01061066 22.91566864 -7.76051331 22.19407654 C-6.99211275 19.98142977 -6.21497404 17.77197273 -5.4375 15.5625 C-4.91152622 14.05293744 -4.38612993 12.54317353 -3.86132812 11.03320312 C-2.58193959 7.3526873 -1.2907523 3.67662393 0 0 Z " fill="#030303" transform="translate(393,163)"/>
<path d="M0 0 C0.99 0.66 1.98 1.32 3 2 C2.67 2.66 2.34 3.32 2 4 C5.47474367 5.15824789 8.1220682 5.08091945 11.78515625 5.02734375 C13.13346103 5.01470355 14.48176845 5.00234215 15.83007812 4.99023438 C17.95231356 4.96535962 20.07441199 4.9373133 22.1965332 4.90405273 C24.24691666 4.87392446 26.29712265 4.85610446 28.34765625 4.83984375 C29.57492432 4.82300537 30.80219238 4.80616699 32.06665039 4.78881836 C35 5 35 5 37 7 C36.39898468 7.00364563 35.79796936 7.00729126 35.17874146 7.01104736 C6.22152918 7.20370287 -22.34754614 7.55324687 -51 12 C-52.14533203 12.16935059 -53.29066406 12.33870117 -54.47070312 12.51318359 C-65.54037528 14.15689146 -76.43407326 16.13433304 -87.25 19.015625 C-90.44991059 19.85560153 -93.65480507 20.59323951 -96.88647461 21.2980957 C-106.36943049 23.38748403 -115.51932091 26.32217769 -124.71069336 29.44628906 C-125.74202393 29.79014648 -126.77335449 30.13400391 -127.8359375 30.48828125 C-128.75938965 30.80321533 -129.6828418 31.11814941 -130.63427734 31.44262695 C-133 32 -133 32 -136 31 C-132.60236788 28.76727032 -129.95639566 27.75359917 -126 27 C-124.4840625 26.319375 -124.4840625 26.319375 -122.9375 25.625 C-117.13761656 23.02593523 -110.36925971 21 -104 21 C-104 20.34 -104 19.68 -104 19 C-103.18917969 18.84144531 -102.37835938 18.68289062 -101.54296875 18.51953125 C-95.95818337 17.34276041 -90.81935247 16.09713445 -85.6875 13.5625 C-77.38656795 9.53964713 -67.98073248 7.26274204 -58.8125 6.375 C-55.19294391 6.21967197 -55.19294391 6.21967197 -52.84375 5.046875 C-48.85212819 3.5774318 -44.90399654 3.27532107 -40.6875 2.875 C-39.87087891 2.78863281 -39.05425781 2.70226562 -38.21289062 2.61328125 C-34.333641 2.22381077 -30.51330306 1.95398989 -26.61328125 1.98046875 C-23.00378225 2.09875306 -23.00378225 2.09875306 -19.5 1.4375 C-16.11688195 1.01461024 -13.39872695 1.34932761 -10.0546875 1.8828125 C-7.70406263 2.01687856 -5.94262938 1.59008323 -3.6875 0.9375 C-2.470625 0.628125 -1.25375 0.31875 0 0 Z " fill="#B19EA1" transform="translate(274,17)"/>
<path d="M0 0 C17.95081967 0 17.95081967 0 23.1796875 5.14453125 C25.50176949 8.78711051 25.56679582 11.2041837 25.5625 15.5 C25.58441406 16.7890625 25.60632813 18.078125 25.62890625 19.40625 C24.85579612 23.82402218 23.47518798 25.25669991 20 28 C17.29283758 28.90238747 15.76223232 29.11851302 12.98828125 29.09765625 C11.96408081 29.09390991 11.96408081 29.09390991 10.91918945 29.09008789 C10.05898193 29.08098389 9.19877441 29.07187988 8.3125 29.0625 C4.1978125 29.0315625 4.1978125 29.0315625 0 29 C0 19.43 0 9.86 0 0 Z " fill="#B2012B" transform="translate(132,88)"/>
<path d="M0 0 C0.91974609 0.07476562 1.83949219 0.14953125 2.78710938 0.2265625 C4.11258789 0.35417969 4.11258789 0.35417969 5.46484375 0.484375 C6.27429443 0.55881836 7.08374512 0.63326172 7.91772461 0.70996094 C10.4674991 1.35197587 11.472043 2.18147731 13.0625 4.25 C13.0625 4.91 13.0625 5.57 13.0625 6.25 C13.660625 6.023125 14.25875 5.79625 14.875 5.5625 C15.596875 5.459375 16.31875 5.35625 17.0625 5.25 C18.5625 6.375 18.5625 6.375 20.0625 8.25 C20.76375 9.075 21.465 9.9 22.1875 10.75 C24.0625 13.25 24.0625 13.25 25.0625 16.25 C25.7225 16.25 26.3825 16.25 27.0625 16.25 C27.25908808 17.66543415 27.44437546 19.08244031 27.625 20.5 C27.78162109 21.68335938 27.78162109 21.68335938 27.94140625 22.890625 C28.0625 25.25 28.0625 25.25 27.0625 29.25 C23.4325 29.58 19.8025 29.91 16.0625 30.25 C15.9078125 27.9296875 15.9078125 27.9296875 15.75 25.5625 C15.34743288 21.37698599 14.55257567 18.7144531 12.0625 15.25 C12.0625 14.59 12.0625 13.93 12.0625 13.25 C10.64648286 12.76891725 9.22965563 12.29021859 7.8125 11.8125 C7.02359375 11.54566406 6.2346875 11.27882813 5.421875 11.00390625 C4.25398438 10.63072266 4.25398438 10.63072266 3.0625 10.25 C2.51980469 10.07597656 1.97710937 9.90195313 1.41796875 9.72265625 C-2.02958093 9.03085938 -5.4805352 9.01220159 -8.984375 8.93359375 C-9.75557678 8.91281265 -10.52677856 8.89203156 -11.3213501 8.87062073 C-13.77664572 8.80541428 -16.23204521 8.74637516 -18.6875 8.6875 C-20.35547935 8.64428726 -22.02344832 8.6006721 -23.69140625 8.55664062 C-27.77333196 8.44976264 -31.85536182 8.34841434 -35.9375 8.25 C-34.1853116 4.43678954 -32.86207795 2.98374929 -28.9375 1.25 C-26.04435463 0.79451101 -23.1750597 0.69446707 -20.25 0.625 C-0.39425022 -0.03851712 -0.39425022 -0.03851712 0 0 Z " fill="#A50228" transform="translate(387.9375,81.75)"/>
<path d="M0 0 C-0.639375 0.53625 -1.27875 1.0725 -1.9375 1.625 C-4.24640227 3.81764612 -4.24640227 3.81764612 -4.25 6.6875 C-5.44580804 11.96898549 -9.29221198 15.19930613 -13 19 C-12.34 19.33 -11.68 19.66 -11 20 C-12.20381448 22.49361571 -13.45428722 24.68143083 -15 27 C-16.32148827 27.37756808 -17.65835921 27.7018576 -19 28 C-19.94875 28.495 -20.8975 28.99 -21.875 29.5 C-24.99547783 30.99782936 -27.58276463 31.59318627 -31 32 C-30.12148798 22.86347502 -26.47869418 13.40153911 -21 6 C-18.0644761 3.90771456 -15.50292741 3.5521856 -12 3 C-10.17266918 2.28689529 -8.35964259 1.53608827 -6.5625 0.75 C-2.23677582 -1.11838791 -2.23677582 -1.11838791 0 0 Z " fill="#D0D0D0" transform="translate(240,198)"/>
<path d="M0 0 C0.8627504 -0.0004985 1.72550079 -0.00099701 2.61439514 -0.00151062 C4.43232536 0.0008215 6.25025932 0.01049892 8.06811523 0.02709961 C10.8354208 0.050677 13.60176013 0.04765557 16.36914062 0.04101562 C18.14193277 0.04659388 19.91472089 0.05370468 21.6875 0.0625 C22.91749977 0.06113289 22.91749977 0.06113289 24.17234802 0.05973816 C29.1350375 0.12031222 33.18905952 0.83891926 37.91015625 2.36328125 C38.83828125 2.46640625 39.76640625 2.56953125 40.72265625 2.67578125 C41.44453125 2.90265625 42.16640625 3.12953125 42.91015625 3.36328125 C44.22265625 5.92578125 44.22265625 5.92578125 44.91015625 8.36328125 C43.92015625 8.69328125 42.93015625 9.02328125 41.91015625 9.36328125 C41.25015625 8.37328125 40.59015625 7.38328125 39.91015625 6.36328125 C38.92015625 6.03328125 37.93015625 5.70328125 36.91015625 5.36328125 C36.58015625 6.68328125 36.25015625 8.00328125 35.91015625 9.36328125 C35.25015625 9.36328125 34.59015625 9.36328125 33.91015625 9.36328125 C33.58015625 10.02328125 33.25015625 10.68328125 32.91015625 11.36328125 C32.07037231 11.15759521 32.07037231 11.15759521 31.21362305 10.94775391 C21.46109498 8.8550493 11.65118991 8.91096704 1.72265625 8.73828125 C-0.10613679 8.70002266 -1.93491332 8.6609666 -3.76367188 8.62109375 C-8.20559234 8.52596095 -12.64759673 8.44162327 -17.08984375 8.36328125 C-16.17634314 4.98332901 -15.43932818 3.60791701 -12.53295898 1.57348633 C-8.21663651 0.05636157 -4.53846563 -0.05084781 0 0 Z " fill="#B6002B" transform="translate(131.08984375,66.63671875)"/>
<path d="M0 0 C3.5625 1.5 3.5625 1.5 6 3 C6.37170491 7.64631139 6.42492292 11.0821665 4.4375 15.375 C0.62019229 19.48594677 -3.05771873 20.76147423 -8.5625 21.4375 C-12.88632658 20.8871948 -14.90261534 20.09738466 -18 17 C-19.0184229 13.16636522 -18.90355377 9.67600366 -17.00390625 6.15234375 C-12.26637864 0.14557198 -7.27336352 -0.86677389 0 0 Z " fill="#F7F7F7" transform="translate(301,172)"/>
<path d="M0 0 C2.32094133 2.39347074 2.39371155 3.14079545 2.5625 6.375 C2.29727743 10.90588555 1.0404383 13.61119165 -2 17.0625 C-5.77032947 20.29421097 -9.14470025 20.41210444 -13.9140625 20.4609375 C-16.57510842 19.95264783 -17.43516349 19.26199157 -19 17.0625 C-19.95726318 12.81789119 -19.95471706 8.68873059 -17.72265625 4.88671875 C-12.63400237 -1.12262067 -7.60073818 -2.37523068 0 0 Z " fill="#F8F8F8" transform="translate(468,172.9375)"/>
<path d="M0 0 C-1.20381448 2.49361571 -2.45428722 4.68143083 -4 7 C-4.763125 7.144375 -5.52625 7.28875 -6.3125 7.4375 C-9.75268208 8.15753811 -11.34077066 9.72992617 -14 12 C-16 13.33333333 -18 14.66666667 -20 16 C-21.29636032 16.97294402 -22.58774739 17.95253763 -23.875 18.9375 C-26.40510778 20.87200802 -28.90249094 22.52634763 -31.6875 24.0625 C-39.03051169 28.50348312 -46.24962725 35.87444088 -51 43 C-51.99 37.555 -51.99 37.555 -53 32 C-41.47061022 21.84725377 -15.94740116 0 0 0 Z M-29 22 C-28.34 22.66 -27.68 23.32 -27 24 C-28.98 24.99 -28.98 24.99 -31 26 C-30.34 24.68 -29.68 23.36 -29 22 Z " fill="#DDDDDD" transform="translate(298,144)"/>
<path d="M0 0 C1.17755859 0.05317383 1.17755859 0.05317383 2.37890625 0.10742188 C6.64291342 0.34830592 9.93606633 0.92002976 13.875 2.6875 C14.865 2.6875 15.855 2.6875 16.875 2.6875 C16.875 4.3375 16.875 5.9875 16.875 7.6875 C15.76125 7.5225 14.6475 7.3575 13.5 7.1875 C10.15467967 6.6419542 10.15467967 6.6419542 7.875 6.6875 C7.545 8.0075 7.215 9.3275 6.875 10.6875 C5.90300659 10.44978882 5.90300659 10.44978882 4.91137695 10.20727539 C1.04134731 9.54479303 -2.79164001 9.45460874 -6.70703125 9.37109375 C-7.52121017 9.35031265 -8.3353891 9.32953156 -9.17424011 9.30812073 C-11.76191179 9.24300537 -14.34968053 9.18391792 -16.9375 9.125 C-18.69727545 9.08177858 -20.45704128 9.03816315 -22.21679688 8.99414062 C-26.51943309 8.8873632 -30.82216643 8.78598982 -35.125 8.6875 C-33.34619141 4.81396484 -33.34619141 4.81396484 -31.35546875 3.67578125 C-30.68128906 3.45277344 -30.00710937 3.22976562 -29.3125 3 C-28.59964844 2.7628125 -27.88679687 2.525625 -27.15234375 2.28125 C-23.30982644 1.15588848 -20.15010924 0.6875 -16.125 0.6875 C-15.07570312 0.51605469 -14.02640625 0.34460938 -12.9453125 0.16796875 C-8.53973928 -0.38610641 -4.41873238 -0.26746888 0 0 Z " fill="#B0012A" transform="translate(249.125,81.3125)"/>
<path d="M0 0 C0.99 0.495 0.99 0.495 2 1 C-2.04894667 4.66144982 -5.93517828 6.32906009 -11 8.0625 C-15.67160583 9.687219 -19.78198987 11.36469026 -24 14 C-26.8125 14.6875 -26.8125 14.6875 -29 15 C-29 15.99 -29 16.98 -29 18 C-29.99 18.33 -30.98 18.66 -32 19 C-32.66 18.67 -33.32 18.34 -34 18 C-34 18.66 -34 19.32 -34 20 C-35.02480469 20.37511719 -36.04960938 20.75023438 -37.10546875 21.13671875 C-38.46641401 21.65293937 -39.82707637 22.16990626 -41.1875 22.6875 C-41.86103516 22.93177734 -42.53457031 23.17605469 -43.22851562 23.42773438 C-47.89488999 25.22599572 -50.46351413 27.39179133 -54 31 C-56.53372977 32.58130706 -59.19511458 33.87325815 -61.875 35.1875 C-69.27400685 38.94458794 -76.10486906 43.22028819 -82.92578125 47.93359375 C-85.2603665 49.50283847 -87.44715891 50.84649403 -90 52 C-88.65427408 47.96282223 -85.96886397 46.37468459 -82.55859375 44.1484375 C-80.84427485 43.06753066 -80.84427485 43.06753066 -80 41 C-76.86176122 39.06877614 -73.97504885 37.3412671 -70.5 36.125 C-67.32383372 34.69572517 -65.16467533 32.62179703 -62.6484375 30.2421875 C-61 29 -61 29 -58 29 C-58 28.34 -58 27.68 -58 27 C-56.36209288 25.95355934 -54.68991979 24.9601817 -53 24 C-52.360625 23.46375 -51.72125 22.9275 -51.0625 22.375 C-49 21 -49 21 -46.20703125 20.625 C-42.60907687 19.92381523 -40.61881624 18.70574618 -37.625 16.625 C-33.13603199 13.63642075 -29.07538845 11.75013395 -24 10 C-23.13375 9.46375 -22.2675 8.9275 -21.375 8.375 C-18.56572597 6.74857819 -16.19478417 6.46590602 -13 6 C-11.31422289 5.38325228 -9.64551962 4.71727778 -8 4 C-7.13375 3.67 -6.2675 3.34 -5.375 3 C-2.80352349 2.00504505 -2.80352349 2.00504505 0 0 Z " fill="#DDDDDD" transform="translate(153,36)"/>
<path d="M0 0 C-2.83896566 2.37228638 -4.98931364 3.47365554 -8.625 4.125 C-9.51445312 4.28484375 -10.40390625 4.4446875 -11.3203125 4.609375 C-13.71881423 4.95901082 -16.08434342 5.19110919 -18.5 5.375 C-23.52307192 5.82363162 -28.38944541 6.81484702 -33.3125 7.875 C-34.08980469 8.03661621 -34.86710937 8.19823242 -35.66796875 8.36474609 C-40.00993019 9.33098276 -43.21283962 10.58559903 -47 13 C-47.99 13 -48.98 13 -50 13 C-50.33 13.66 -50.66 14.32 -51 15 C-53.5813814 15.84414842 -56.12412426 16.57198154 -58.75 17.25 C-60.38955597 17.68923516 -62.02886907 18.12937765 -63.66796875 18.5703125 C-64.53470215 18.80137695 -65.40143555 19.03244141 -66.29443359 19.27050781 C-70.89630785 20.5112947 -75.4793151 21.81715955 -80.0625 23.125 C-80.9174707 23.36637695 -81.77244141 23.60775391 -82.65332031 23.85644531 C-87.53847168 25.24758113 -92.32502577 26.77302896 -97.08764648 28.54248047 C-99 29 -99 29 -102 28 C-98.60236788 25.76727032 -95.95639566 24.75359917 -92 24 C-90.4840625 23.319375 -90.4840625 23.319375 -88.9375 22.625 C-83.13761656 20.02593523 -76.36925971 18 -70 18 C-70 17.34 -70 16.68 -70 16 C-69.18917969 15.84144531 -68.37835938 15.68289062 -67.54296875 15.51953125 C-61.95818337 14.34276041 -56.81935247 13.09713445 -51.6875 10.5625 C-43.38656795 6.53964713 -33.98073248 4.26274204 -24.8125 3.375 C-21.14620811 3.19319794 -21.14620811 3.19319794 -18.5 2 C-12.71684286 -0.31326285 -6.15322273 -0.13091963 0 0 Z " fill="#BFBFC0" transform="translate(240,20)"/>
<path d="M0 0 C2.33203125 1.02734375 2.33203125 1.02734375 4 2 C4 3.32 4 4.64 4 6 C2.9275 6.268125 1.855 6.53625 0.75 6.8125 C-2.58929431 7.8699432 -4.51497928 8.610557 -7 11 C-7.33 11.99 -7.66 12.98 -8 14 C-14.4 14.36923077 -14.4 14.36923077 -17.4375 12.5 C-17.953125 12.005 -18.46875 11.51 -19 11 C-18.93114984 8.039443 -18.68018614 5.83038498 -16.76171875 3.48828125 C-11.72135199 -0.71001947 -6.33750535 -0.92199542 0 0 Z " fill="#E00A3E" transform="translate(419,142)"/>
<path d="M0 0 C-0.33 0.99 -0.66 1.98 -1 3 C-1.66 3 -2.32 3 -3 3 C-3.33 3.66 -3.66 4.32 -4 5 C-4.58305908 4.86287598 -5.16611816 4.72575195 -5.7668457 4.58447266 C-14.87699579 2.67078433 -23.91964602 2.55570762 -33.1875 2.375 C-34.82358641 2.33672897 -36.45965465 2.29767229 -38.09570312 2.2578125 C-42.06365081 2.162825 -46.03169216 2.07844144 -50 2 C-49.34 0.68 -48.68 -0.64 -48 -2 C-43.0934329 -2.21963388 -38.1866425 -2.4159256 -33.27832031 -2.59204102 C-31.61401328 -2.65487841 -29.94992067 -2.72373031 -28.28613281 -2.79907227 C-18.36152449 -3.24394791 -9.55396536 -3.24279525 0 0 Z " fill="#A30226" transform="translate(168,73)"/>
<path d="M0 0 C1.14275391 0.13148437 1.14275391 0.13148437 2.30859375 0.265625 C4.5625 0.75 4.5625 0.75 6.5078125 1.796875 C9.86162535 3.35263609 13.18198578 2.78640675 16.80859375 2.625 C19.83043103 2.76216141 21.80860561 3.54323729 24.5625 4.75 C26.05342714 5.14060249 27.55400647 5.49645998 29.0625 5.8125 C29.7946875 5.96847656 30.526875 6.12445312 31.28125 6.28515625 C32.854031 6.60563731 34.43628035 6.88176053 36.0234375 7.12109375 C39.0061973 7.85990041 41.09956089 9.10384913 43.6875 10.75 C46.37122417 12.44670099 48.54020778 13.74256926 51.5625 14.75 C51.5625 14.09 51.5625 13.43 51.5625 12.75 C56.76072672 14.11144033 59.65793873 16.21730171 63.5625 19.75 C62.0775 20.245 62.0775 20.245 60.5625 20.75 C58.73828125 19.75390625 58.73828125 19.75390625 56.875 18.3125 C56.25238281 17.83941406 55.62976563 17.36632812 54.98828125 16.87890625 C54.51777344 16.50636719 54.04726563 16.13382813 53.5625 15.75 C52.9025 17.07 52.2425 18.39 51.5625 19.75 C50.5725 19.42 49.5825 19.09 48.5625 18.75 C48.0675 17.265 48.0675 17.265 47.5625 15.75 C45.02504761 13.96438536 43.57698376 13.75 40.4375 13.75 C39.48875 13.75 38.54 13.75 37.5625 13.75 C36.9025 13.09 36.2425 12.43 35.5625 11.75 C33.49375966 11.1074765 33.49375966 11.1074765 31.5625 10.75 C31.5625 10.09 31.5625 9.43 31.5625 8.75 C30.2425 8.42 28.9225 8.09 27.5625 7.75 C28.0575 9.235 28.0575 9.235 28.5625 10.75 C27.2425 10.42 25.9225 10.09 24.5625 9.75 C24.5625 9.09 24.5625 8.43 24.5625 7.75 C23.2425 8.08 21.9225 8.41 20.5625 8.75 C20.5625 8.09 20.5625 7.43 20.5625 6.75 C18.9125 7.08 17.2625 7.41 15.5625 7.75 C15.5625 7.09 15.5625 6.43 15.5625 5.75 C14.9025 5.976875 14.2425 6.20375 13.5625 6.4375 C10.11727048 6.79637807 7.98484801 5.90011351 4.83203125 4.5859375 C0.86451081 3.12457885 -3.28249979 2.4737193 -7.4375 1.75 C-4.16689407 -0.43040395 -3.67375511 -0.47083539 0 0 Z " fill="#CECECE" transform="translate(360.4375,14.25)"/>
<path d="M0 0 C1.12954102 0.08233887 2.25908203 0.16467773 3.42285156 0.24951172 C12.89440064 1.03572707 21.93290243 2.36731197 30.6875 6.1875 C31.1825 7.1775 31.1825 7.1775 31.6875 8.1875 C28.94566913 7.70364749 26.48654561 7.1115839 23.875 6.125 C20.68058515 5.18546622 17.98799284 5.09235989 14.67578125 5.1796875 C11.63297544 5.19164351 8.6938753 4.6384563 5.6875 4.1875 C2.74137574 3.91235909 -0.20663796 3.67603448 -3.15625 3.44140625 C-7.87847682 3.06152414 -12.59521854 2.6239414 -17.3125 2.1875 C-17.3125 2.8475 -17.3125 3.5075 -17.3125 4.1875 C-21.57776136 4.28228359 -25.63421572 4.0549408 -29.875 3.5625 C-35.39907008 3.03279465 -39.04486421 3.63595973 -43.6875 6.8125 C-44.22375 7.26625 -44.76 7.72 -45.3125 8.1875 C-45.355221 6.52138095 -45.35313832 4.85367115 -45.3125 3.1875 C-44.9825 2.8575 -44.6525 2.5275 -44.3125 2.1875 C-44.9725 1.5275 -45.6325 0.8675 -46.3125 0.1875 C-30.81947067 -0.60951839 -15.48920814 -1.13872732 0 0 Z " fill="#C4C4C4" transform="translate(340.3125,13.8125)"/>
<path d="M0 0 C-0.474375 0.556875 -0.94875 1.11375 -1.4375 1.6875 C-3.14107149 3.87605004 -3.14107149 3.87605004 -3.4375 6.375 C-4.41754607 10.94854833 -7.38191259 15.03974666 -11 18 C-11.66 18 -12.32 18 -13 18 C-13.33 18.99 -13.66 19.98 -14 21 C-14.33 20.34 -14.66 19.68 -15 19 C-16.65 19.33 -18.3 19.66 -20 20 C-18.11988326 13.17220763 -15.65335282 6.44276088 -11 1 C-7.24334119 -1.02062708 -4.10075536 -1.36691845 0 0 Z " fill="#ABA8A8" transform="translate(231,202)"/>
<path d="M0 0 C1.24007812 0.01546875 2.48015625 0.0309375 3.7578125 0.046875 C6.875 0.25 6.875 0.25 8.875 1.25 C8.875 2.57 8.875 3.89 8.875 5.25 C-14.12073532 10.4921889 -14.12073532 10.4921889 -24.125 10.25 C-23.25 5.375 -23.25 5.375 -22.125 4.25 C-19.38096619 4.00507797 -16.6380033 3.86614703 -13.88671875 3.7265625 C-11.08889138 3.4719965 -11.08889138 3.4719965 -9.21484375 1.7265625 C-6.16281043 -0.4298274 -3.68416143 -0.0769136 0 0 Z " fill="#B01033" transform="translate(233.125,98.75)"/>
<path d="M0 0 C0.33 0 0.66 0 1 0 C1 3.3 1 6.6 1 10 C1.74765625 9.855625 2.4953125 9.71125 3.265625 9.5625 C4.25046875 9.376875 5.2353125 9.19125 6.25 9 C7.22453125 8.814375 8.1990625 8.62875 9.203125 8.4375 C12 8 12 8 16 8 C14.33559327 14.99050827 11.71955199 19.55965964 6 24 C4.68613892 24.70426648 3.35688989 25.38268966 2 26 C0.11585358 22.80542649 -0.23819737 20.48497371 -0.1953125 16.796875 C-0.18886719 15.8171875 -0.18242187 14.8375 -0.17578125 13.828125 C-0.15902344 12.81234375 -0.14226562 11.7965625 -0.125 10.75 C-0.11597656 9.71875 -0.10695313 8.6875 -0.09765625 7.625 C-0.07412011 5.08309713 -0.04124023 2.5416672 0 0 Z " fill="#C8BCBE" transform="translate(403,102)"/>
<path d="M0 0 C-0.95712891 0.50660156 -0.95712891 0.50660156 -1.93359375 1.0234375 C-2.75988281 1.46945313 -3.58617187 1.91546875 -4.4375 2.375 C-5.26121094 2.81585937 -6.08492187 3.25671875 -6.93359375 3.7109375 C-9.13466578 4.83418559 -9.13466578 4.83418559 -10 7 C-12.62515512 7.58443025 -15.18442519 8.0435638 -17.83984375 8.4375 C-18.63596573 8.56310303 -19.43208771 8.68870605 -20.25233459 8.81811523 C-22.81282433 9.22050359 -25.37499282 9.6106854 -27.9375 10 C-31.28047116 10.51749769 -34.62269883 11.03969616 -37.96484375 11.5625 C-38.76360931 11.68657227 -39.56237488 11.81064453 -40.38534546 11.93847656 C-45.95819816 12.81181615 -51.48218271 13.82286564 -57 15 C-56.67 14.01 -56.34 13.02 -56 12 C-55.113125 11.896875 -54.22625 11.79375 -53.3125 11.6875 C-50.05893999 11.23622497 -50.05893999 11.23622497 -47.95703125 9.58984375 C-43.63024668 7.26355403 -39.18704732 6.68456382 -34.375 5.875 C-33.44042969 5.70613281 -32.50585938 5.53726562 -31.54296875 5.36328125 C-25.86330251 4.36836041 -20.25142315 3.7032361 -14.49462891 3.36035156 C-10.9267695 2.84497081 -8.03216698 1.42523607 -4.875 -0.2578125 C-3 -1 -3 -1 0 0 Z " fill="#B3B0B0" transform="translate(246,20)"/>
<path d="M0 0 C1.02770508 -0.01160156 1.02770508 -0.01160156 2.07617188 -0.0234375 C7.1841133 -0.0033867 7.1841133 -0.0033867 9.4375 2.25 C9.4375 3.24 9.4375 4.23 9.4375 5.25 C-1.8613367 7.37118336 -13.13072166 9.03385337 -24.5625 10.25 C-23.98905063 7.38275314 -23.7010485 6.3885485 -21.5625 4.25 C-18.9609375 4.0546875 -18.9609375 4.0546875 -15.9375 4.125 C-14.43316406 4.15207031 -14.43316406 4.15207031 -12.8984375 4.1796875 C-12.12757813 4.20289062 -11.35671875 4.22609375 -10.5625 4.25 C-10.5625 3.59 -10.5625 2.93 -10.5625 2.25 C-6.92564463 -0.17457025 -4.20017221 -0.04768407 0 0 Z " fill="#AE0D30" transform="translate(370.5625,98.75)"/>
<path d="M0 0 C-0.48835568 6.47071277 -0.48835568 6.47071277 -2.8125 8.875 C-6.53236327 10.78807254 -9.90498882 11.15614622 -14.0625 11.1875 C-15.34833984 11.20876953 -15.34833984 11.20876953 -16.66015625 11.23046875 C-19 11 -19 11 -22 9 C-21.9375 7.1875 -21.9375 7.1875 -21 5 C-14.73018633 1.45619227 -7.17513989 0 0 0 Z " fill="#AB1133" transform="translate(243,111)"/>
<path d="M0 0 C0.33 0 0.66 0 1 0 C2.125 6.75 2.125 6.75 1 9 C1.66 9 2.32 9 3 9 C3.33 8.34 3.66 7.68 4 7 C4.61196106 14.22114047 4.61196106 14.22114047 1.9375 17.625 C0.968125 18.40875 -0.00125 19.1925 -1 20 C-1.84884766 20.77537109 -1.84884766 20.77537109 -2.71484375 21.56640625 C-6.0221387 24.56974849 -8.78063221 26.43280625 -13 28 C-13.66 28.99 -14.32 29.98 -15 31 C-15.33 26.71 -15.66 22.42 -16 18 C-10.375 16.875 -10.375 16.875 -7 19 C-3.08396696 16.20579508 -3.08396696 16.20579508 -1 12 C-0.77674186 9.94106379 -0.59294241 7.87766347 -0.4375 5.8125 C-0.35371094 4.72582031 -0.26992188 3.63914062 -0.18359375 2.51953125 C-0.12300781 1.68808594 -0.06242187 0.85664062 0 0 Z " fill="#C5C4C4" transform="translate(471,75)"/>
<path d="M0 0 C1.35544922 -0.01836914 1.35544922 -0.01836914 2.73828125 -0.03710938 C8.71234585 -0.05000304 13.96370032 0.69368998 19.75 2.1875 C19.75 2.5175 19.75 2.8475 19.75 3.1875 C13.12602353 4.0958512 6.85442621 4.19312717 0.20263672 3.74755859 C-9.89919648 3.07148676 -19.30225895 3.48551923 -29.30981445 5.06982422 C-35.35080308 6.02151294 -41.13471959 6.37313655 -47.25 6.1875 C-47.25 5.1975 -47.25 4.2075 -47.25 3.1875 C-46.68152344 3.19910156 -46.11304688 3.21070313 -45.52734375 3.22265625 C-44.75519531 3.23167969 -43.98304688 3.24070312 -43.1875 3.25 C-42.05634766 3.26740234 -42.05634766 3.26740234 -40.90234375 3.28515625 C-38.1325247 3.22975588 -38.1325247 3.22975588 -34.94921875 2.71484375 C-30.31492755 2.05420034 -25.7064193 1.81777724 -21.03515625 1.58203125 C-18.24865929 1.42752186 -15.54964096 1.24987265 -12.81396484 0.68041992 C-8.56226564 -0.1369654 -4.31731459 0.00302757 0 0 Z " fill="#E0E0E0" transform="translate(309.25,8.8125)"/>
<path d="M0 0 C0 1.65 0 3.3 0 5 C-13.8627451 10.44607843 -13.8627451 10.44607843 -21 10 C-21 8.35 -21 6.7 -21 5 C-14.39667705 1.77170878 -7.38386842 0 0 0 Z " fill="#AA1133" transform="translate(380,111)"/>
<path d="M0 0 C0.33 0 0.66 0 1 0 C1.0270043 1.45823212 1.04639787 2.91660675 1.0625 4.375 C1.07410156 5.18710938 1.08570313 5.99921875 1.09765625 6.8359375 C1 9 1 9 0 11 C0.66 11 1.32 11 2 11 C0.54195269 15.13113405 -1.45615922 18.43862291 -4 22 C-4.763125 23.0725 -5.52625 24.145 -6.3125 25.25 C-9.59304911 28.60684095 -11.48747179 29.11519055 -16 30 C-14.8125 26.5625 -14.8125 26.5625 -13 23 C-10.3125 22.0625 -10.3125 22.0625 -8 22 C-7.896875 21.21625 -7.79375 20.4325 -7.6875 19.625 C-7 17 -7 17 -4 15 C-3.49556904 13.10022098 -3.49556904 13.10022098 -3.4375 11 C-3.2074364 7.2074364 -3.2074364 7.2074364 -1 5 C-0.35232207 2.42938689 -0.35232207 2.42938689 0 0 Z " fill="#B6002B" transform="translate(195,91)"/>
<path d="M0 0 C0.495 0.99 0.495 0.99 1 2 C-0.093125 2.12375 -1.18625 2.2475 -2.3125 2.375 C-6.07381802 2.75464801 -6.07381802 2.75464801 -9 5 C-10.0209375 4.7834375 -10.0209375 4.7834375 -11.0625 4.5625 C-16.56604607 3.50862948 -22.20934033 4.69649836 -27.6875 5.625 C-31.33589448 6.03802579 -34.37953797 5.52661266 -38 5 C-39.0725 5.185625 -40.145 5.37125 -41.25 5.5625 C-44 6 -44 6 -47 4 C-31.52107675 1.30052173 -15.72747495 -0.5252218 0 0 Z " fill="#C2C2C2" transform="translate(293,14)"/>
<path d="M0 0 C-1.94611893 5.83835678 -8.11502889 10.34205955 -13 14 C-13.99 14.33 -14.98 14.66 -16 15 C-19.7645482 18.7645482 -20.58789699 21.74568665 -21 27 C-21.33 27 -21.66 27 -22 27 C-22.66 23.37 -23.32 19.74 -24 16 C-5.24263039 0 -5.24263039 0 0 0 Z " fill="#CCBFC1" transform="translate(269,160)"/>
<path d="M0 0 C-0.49701416 0.25056152 -0.99402832 0.50112305 -1.50610352 0.75927734 C-11.75332126 5.95654362 -21.55592275 11.41065422 -30.99609375 17.96875 C-33.30527047 19.5302219 -35.47011397 20.85626774 -38 22 C-36.65427408 17.96282223 -33.96886397 16.37468459 -30.55859375 14.1484375 C-28.84427485 13.06753066 -28.84427485 13.06753066 -28 11 C-22.0285234 7.22212705 -15.87522613 4.63115121 -9 3 C-9 2.34 -9 1.68 -9 1 C-5.47051709 -0.66670026 -3.71727674 -1.13583456 0 0 Z " fill="#E1D5D6" transform="translate(101,66)"/>
<path d="M0 0 C-1.66440673 6.99050827 -4.28044801 11.55965964 -10 16 C-11.31386108 16.70426648 -12.64311011 17.38268966 -14 18 C-14.33 16.68 -14.66 15.36 -15 14 C-14.50628906 13.67386719 -14.01257813 13.34773438 -13.50390625 13.01171875 C-12.54291016 12.35623047 -12.54291016 12.35623047 -11.5625 11.6875 C-10.60537109 11.04361328 -10.60537109 11.04361328 -9.62890625 10.38671875 C-7.7114316 8.9965948 -7.7114316 8.9965948 -7 6 C-6.96125079 4.33378384 -6.9549714 2.66605828 -7 1 C-4 0 -4 0 0 0 Z " fill="#CFCBCB" transform="translate(419,110)"/>
<path d="M0 0 C-1.65 1.65 -3.3 3.3 -5 5 C0.61 5.33 6.22 5.66 12 6 C12 6.33 12 6.66 12 7 C3.09 7 -5.82 7 -15 7 C-11.43755081 -0.12489838 -7.34824867 -0.37363976 0 0 Z " fill="#B81337" transform="translate(367,83)"/>
<path d="M0 0 C0.66 0.33 1.32 0.66 2 1 C1.01 1 0.02 1 -1 1 C-0.67 0.67 -0.34 0.34 0 0 Z M10 0 C9.67 0.99 9.34 1.98 9 3 C8.34 3 7.68 3 7 3 C6.67 3.99 6.34 4.98 6 6 C4.865625 6.12375 3.73125 6.2475 2.5625 6.375 C-2.03337785 6.94229083 -6.49901249 7.92684788 -11 9 C-9.89210592 5.67631776 -9.51563783 5.38436907 -6.625 3.75 C-5.71621094 3.21632813 -5.71621094 3.21632813 -4.7890625 2.671875 C-3 2 -3 2 0 3 C0.99 2.67 1.98 2.34 3 2 C3 1.34 3 0.68 3 0 C6.01031744 -0.93423645 6.86650268 -1.04449911 10 0 Z " fill="#B7042D" transform="translate(306,71)"/>
<path d="M0 0 C-3.49167491 1.98903869 -6.97198164 2.79086065 -10.875 3.6875 C-18.97809653 5.59812689 -26.84388119 8.12476943 -34.72412109 10.80151367 C-35.62598145 11.10033447 -36.5278418 11.39915527 -37.45703125 11.70703125 C-38.26116455 11.9800708 -39.06529785 12.25311035 -39.89379883 12.53442383 C-42 13 -42 13 -45 12 C-41.60236788 9.76727032 -38.95639566 8.75359917 -35 8 C-33.4840625 7.319375 -33.4840625 7.319375 -31.9375 6.625 C-26.83814246 4.35246023 -21.42581759 3.23031278 -16 2 C-15.08089844 1.79117188 -14.16179687 1.58234375 -13.21484375 1.3671875 C-8.73611594 0.40794263 -4.60897589 -0.24257768 0 0 Z " fill="#BEB2B3" transform="translate(183,36)"/>
<path d="M0 0 C-1.20381448 2.49361571 -2.45428722 4.68143083 -4 7 C-5.32148827 7.37756808 -6.65835921 7.7018576 -8 8 C-8.94875 8.495 -9.8975 8.99 -10.875 9.5 C-13.99547783 10.99782936 -16.58276463 11.59318627 -20 12 C-19.34 10.02 -18.68 8.04 -18 6 C-16.824375 5.938125 -15.64875 5.87625 -14.4375 5.8125 C-10.20264657 5.31693205 -7.76841604 3.76306618 -4.54296875 1.05859375 C-3 0 -3 0 0 0 Z " fill="#D6D5D5" transform="translate(229,218)"/>
<path d="M0 0 C0 0.33 0 0.66 0 1 C-10.85299084 1.28435784 -21.25368837 0.47317858 -32 -1 C-32 -1.33 -32 -1.66 -32 -2 C-20.64793926 -3.37899219 -10.97973959 -3.56788443 0 0 Z " fill="#D6D6D6" transform="translate(352,14)"/>
<path d="M0 0 C0.66 1.32 1.32 2.64 2 4 C-3.346651 12.09635723 -3.346651 12.09635723 -8 14 C-10.99312745 14.50979068 -13.97088714 14.80861814 -17 15 C-16.1640625 13.046875 -16.1640625 13.046875 -15 11 C-12.375 10.25 -12.375 10.25 -10 10 C-10 10.66 -10 11.32 -10 12 C-9.5875 11.5875 -9.175 11.175 -8.75 10.75 C-7.4998264 9.4998264 -6.22611247 8.27301475 -4.9375 7.0625 C-3.08911211 5.09486128 -2.09366087 3.43970501 -1 1 C-0.67 0.67 -0.34 0.34 0 0 Z " fill="#C2C2C2" transform="translate(227,210)"/>
<path d="M0 0 C1.6097168 0.00966797 1.6097168 0.00966797 3.25195312 0.01953125 C4.9312793 0.04466797 4.9312793 0.04466797 6.64453125 0.0703125 C7.77568359 0.07933594 8.90683594 0.08835937 10.07226562 0.09765625 C12.86739953 0.12124388 15.6621097 0.1541595 18.45703125 0.1953125 C18.78703125 1.1853125 19.11703125 2.1753125 19.45703125 3.1953125 C15.19176989 3.29009609 11.13531553 3.0627533 6.89453125 2.5703125 C1.37046117 2.04060715 -2.27533296 2.64377223 -6.91796875 5.8203125 C-7.45421875 6.2740625 -7.99046875 6.7278125 -8.54296875 7.1953125 C-8.73046875 4.8203125 -8.73046875 4.8203125 -8.54296875 2.1953125 C-5.14399202 -0.07067198 -3.97977702 -0.04211404 0 0 Z " fill="#B8B8B8" transform="translate(303.54296875,14.8046875)"/>
<path d="M0 0 C-0.52207031 0.20568604 -1.04414063 0.41137207 -1.58203125 0.62329102 C-13.15828189 5.1937306 -24.63708595 9.92160266 -36 15 C-35.40625 13.171875 -35.40625 13.171875 -34 11 C-31.03125 9.515625 -31.03125 9.515625 -27.5 8.25 C-25.75203125 7.60804687 -25.75203125 7.60804687 -23.96875 6.953125 C-21 6 -21 6 -19 6 C-19 5.34 -19 4.68 -19 4 C-17.91912109 3.81824219 -17.91912109 3.81824219 -16.81640625 3.6328125 C-13.11312914 2.80073082 -9.85747216 1.28608155 -6.40234375 -0.2578125 C-3.71911089 -1.08677875 -2.62610345 -0.77566577 0 0 Z " fill="#C7B8B9" transform="translate(138,50)"/>
<path d="M0 0 C0 0.66 0 1.32 0 2 C-0.99 2 -1.98 2 -3 2 C-3 2.66 -3 3.32 -3 4 C-9.625 7.875 -9.625 7.875 -13 9 C-13 9.66 -13 10.32 -13 11 C-14.65532623 12.01866229 -16.32260138 13.01810813 -18 14 C-18.33 14.66 -18.66 15.32 -19 16 C-20.64363134 16.72159424 -22.31050386 17.39351421 -24 18 C-22.25 14.125 -22.25 14.125 -20 13 C-19.70351563 12.36803711 -19.40703125 11.73607422 -19.1015625 11.08496094 C-17.80952132 8.6394752 -16.77320957 7.96035686 -14.375 6.640625 C-13.31539063 6.05087891 -13.31539063 6.05087891 -12.234375 5.44921875 C-11.49703125 5.05347656 -10.7596875 4.65773437 -10 4.25 C-9.26265625 3.83878906 -8.5253125 3.42757812 -7.765625 3.00390625 C-2.29671927 0 -2.29671927 0 0 0 Z " fill="#D5D1D2" transform="translate(288,149)"/>
<path d="M0 0 C-0.33 0.66 -0.66 1.32 -1 2 C-3 2.33333333 -5 2.66666667 -7 3 C-7.33 3.66 -7.66 4.32 -8 5 C-9.76586914 5.50244141 -9.76586914 5.50244141 -12.03515625 5.8515625 C-13.24848633 6.04492188 -13.24848633 6.04492188 -14.48632812 6.2421875 C-15.33646484 6.36851563 -16.18660156 6.49484375 -17.0625 6.625 C-17.91650391 6.7590625 -18.77050781 6.893125 -19.65039062 7.03125 C-21.76569589 7.36213574 -23.88270604 7.68208799 -26 8 C-26.33 7.34 -26.66 6.68 -27 6 C-26.17757812 5.82984375 -25.35515625 5.6596875 -24.5078125 5.484375 C-18.05088243 4.0826396 -12.11948359 2.46370569 -6.12109375 -0.328125 C-3.65968885 -1.10779653 -2.40162961 -0.84955605 0 0 Z " fill="#B8B8B8" transform="translate(197,30)"/>
<path d="M0 0 C-1.20381448 2.49361571 -2.45428722 4.68143083 -4 7 C-5.1446875 7.2165625 -5.1446875 7.2165625 -6.3125 7.4375 C-9.16493332 7.82343914 -9.16493332 7.82343914 -11.5 10 C-14.12508698 12.10006959 -15.710671 12.62407669 -19 13 C-19 12.34 -19 11.68 -19 11 C-16 9 -16 9 -13 9 C-13 8.34 -13 7.68 -13 7 C-12.01 7 -11.02 7 -10 7 C-10 6.01 -10 5.02 -10 4 C-8.71086513 3.32845067 -7.41859796 2.66291141 -6.125 2 C-5.40570313 1.62875 -4.68640625 1.2575 -3.9453125 0.875 C-2 0 -2 0 0 0 Z " fill="#E2E2E2" transform="translate(298,144)"/>
<path d="M0 0 C1.76923828 0.01353516 1.76923828 0.01353516 3.57421875 0.02734375 C4.47785156 0.03894531 5.38148438 0.05054688 6.3125 0.0625 C6.3125 0.7225 6.3125 1.3825 6.3125 2.0625 C-2.07659618 3.3152717 -10.18487031 4.42261137 -18.6875 4.0625 C-18.6875 3.0725 -18.6875 2.0825 -18.6875 1.0625 C-17.76517578 1.07990234 -17.76517578 1.07990234 -16.82421875 1.09765625 C-15.61185547 1.11119141 -15.61185547 1.11119141 -14.375 1.125 C-13.57449219 1.13660156 -12.77398437 1.14820313 -11.94921875 1.16015625 C-7.85445702 0.98335307 -4.23748072 -0.04195525 0 0 Z " fill="#DADADA" transform="translate(280.6875,10.9375)"/>
<path d="M0 0 C0.66 0 1.32 0 2 0 C2 0.66 2 1.32 2 2 C2.66 2.33 3.32 2.66 4 3 C-9.87971698 10.31839623 -9.87971698 10.31839623 -16.0625 9.6875 C-16.701875 9.460625 -17.34125 9.23375 -18 9 C-14.21734639 6.47823093 -10.19725123 5.26481328 -5.91796875 3.85546875 C-2.25610161 2.82010976 -2.25610161 2.82010976 0 0 Z " fill="#E9D8DA" transform="translate(338,126)"/>
<path d="M0 0 C0.66 0.33 1.32 0.66 2 1 C-0.33333333 3.33333333 -2.66666667 5.66666667 -5 8 C-5 8.99 -5 9.98 -5 11 C-5.66 11.66 -6.32 12.32 -7 13 C-7.40047444 15.32275177 -7.7397104 17.65739357 -8 20 C-8.33 20 -8.66 20 -9 20 C-9.66 16.37 -10.32 12.74 -11 9 C-7.37 6.03 -3.74 3.06 0 0 Z " fill="#BBB2B3" transform="translate(256,167)"/>
<path d="M0 0 C0 0.66 0 1.32 0 2 C-2.1875 2.65625 -2.1875 2.65625 -4.375 3.3125 C-5.2825 3.58578125 -6.19 3.8590625 -7.125 4.140625 C-8.99771673 4.70040446 -10.87264098 5.25286756 -12.75 5.796875 C-13.61625 6.04953125 -14.4825 6.3021875 -15.375 6.5625 C-16.16648438 6.79066406 -16.95796875 7.01882812 -17.7734375 7.25390625 C-20.03490255 7.94807179 -20.03490255 7.94807179 -22.1484375 9.11328125 C-24 10 -24 10 -26.25 9.625 C-26.8275 9.41875 -27.405 9.2125 -28 9 C-28 8.67 -28 8.34 -28 8 C-22.45588294 6.11178622 -16.89465218 4.35161584 -11.26171875 2.74609375 C-8.97670401 2.05604861 -8.97670401 2.05604861 -6.87890625 0.91796875 C-4.49487728 -0.24678553 -2.618094 -0.14544967 0 0 Z " fill="#C4C4C4" transform="translate(170,36)"/>
<path d="M0 0 C-0.3344026 3.09322404 -0.5595118 4.58887768 -2.875 6.75 C-5 8 -5 8 -8 9 C-8 6.36 -8 3.72 -8 1 C-5.10765685 0.17361624 -3.11257569 0 0 0 Z " fill="#AEAAAB" transform="translate(412,111)"/>
<path d="M0 0 C1.51400391 0.01740234 1.51400391 0.01740234 3.05859375 0.03515625 C4.07050781 0.04417969 5.08242187 0.05320312 6.125 0.0625 C7.29869141 0.07990234 7.29869141 0.07990234 8.49609375 0.09765625 C7.85671875 0.40703125 7.21734375 0.71640625 6.55859375 1.03515625 C4.55998554 1.93217255 4.55998554 1.93217255 3.49609375 3.09765625 C4.48609375 3.75765625 5.47609375 4.41765625 6.49609375 5.09765625 C2.86609375 5.42765625 -0.76390625 5.75765625 -4.50390625 6.09765625 C-3.31019556 0.12910279 -3.31019556 0.12910279 0 0 Z " fill="#BC1B3F" transform="translate(213.50390625,102.90234375)"/>
<path d="M0 0 C0.66 0.33 1.32 0.66 2 1 C-1.64911488 4.22479919 -4.44745765 6.22956686 -9 8 C-9.66 8.99 -10.32 9.98 -11 11 C-11 8.03 -11 5.06 -11 2 C-10.28972656 1.93941406 -9.57945312 1.87882812 -8.84765625 1.81640625 C-7.46900391 1.69072266 -7.46900391 1.69072266 -6.0625 1.5625 C-5.14597656 1.48128906 -4.22945313 1.40007812 -3.28515625 1.31640625 C-1.03840268 1.23955024 -1.03840268 1.23955024 0 0 Z " fill="#DFDCDC" transform="translate(467,95)"/>
<path d="M0 0 C0 0.99 0 1.98 0 3 C5.94 3.33 11.88 3.66 18 4 C18 4.33 18 4.66 18 5 C9.42 5 0.84 5 -8 5 C-5.66097241 0.32194482 -5.04205441 0 0 0 Z " fill="#BA1E3F" transform="translate(222,85)"/>
<path d="M0 0 C-3.31727546 3.31727546 -7.91709243 3.28243742 -12.421875 4.12109375 C-15.97617688 4.99414825 -18.76630057 6.32292379 -22 8 C-24.875 8.1875 -24.875 8.1875 -27 8 C-26.34 7.01 -25.68 6.02 -25 5 C-22.67377689 4.62020847 -20.33824592 4.29692012 -18 4 C-3.84341637 -0.07117438 -3.84341637 -0.07117438 0 0 Z " fill="#DADADA" transform="translate(215,21)"/>
<path d="M0 0 C0.66 0.66 1.32 1.32 2 2 C-0.97 4.64 -3.94 7.28 -7 10 C-7.66 9.67 -8.32 9.34 -9 9 C-8.25 7.0625 -8.25 7.0625 -7 5 C-4.875 4.25 -4.875 4.25 -3 4 C-3 3.34 -3 2.68 -3 2 C-2.01 1.34 -1.02 0.68 0 0 Z M-11 9 C-10.34 9.33 -9.68 9.66 -9 10 C-10.98 10.99 -10.98 10.99 -13 12 C-12.34 11.01 -11.68 10.02 -11 9 Z M-9 10 C-8.34 10.66 -7.68 11.32 -7 12 C-8.98 12.99 -8.98 12.99 -11 14 C-10.34 12.68 -9.68 11.36 -9 10 Z " fill="#E4E4E4" transform="translate(278,156)"/>
<path d="M0 0 C1.4540625 0.0309375 1.4540625 0.0309375 2.9375 0.0625 C2.9375 0.7225 2.9375 1.3825 2.9375 2.0625 C0.85641315 2.73614661 -1.2274671 3.40116798 -3.3125 4.0625 C-4.47265625 4.43375 -5.6328125 4.805 -6.828125 5.1875 C-10.0625 6.0625 -10.0625 6.0625 -14.0625 6.0625 C-14.0625 5.4025 -14.0625 4.7425 -14.0625 4.0625 C-13.35222656 3.85753906 -12.64195312 3.65257812 -11.91015625 3.44140625 C-10.99105469 3.17199219 -10.07195312 2.90257812 -9.125 2.625 C-7.75021484 2.22474609 -7.75021484 2.22474609 -6.34765625 1.81640625 C-0.89748647 0.01831605 -0.89748647 0.01831605 0 0 Z " fill="#D8D8D8" transform="translate(170.0625,31.9375)"/>
<path d="M0 0 C-4.36988258 3.5895464 -7.66467599 4.13599111 -13.25 4.0625 C-14.14203125 4.05347656 -15.0340625 4.04445313 -15.953125 4.03515625 C-16.62859375 4.02355469 -17.3040625 4.01195313 -18 4 C-14.89724263 1.93149509 -12.5900783 1.21441918 -9 0.3125 C-7.948125 0.04050781 -6.89625 -0.23148437 -5.8125 -0.51171875 C-3 -1 -3 -1 0 0 Z " fill="#B9AFB1" transform="translate(379,118)"/>
<path d="M0 0 C0.99 0.33 1.98 0.66 3 1 C0.05960949 8.15921168 -4.00449433 12.18309801 -10 17 C-10.66 16.01 -11.32 15.02 -12 14 C-11.071875 13.5875 -10.14375 13.175 -9.1875 12.75 C-6.07312814 11.04014879 -4.95780365 9.8388153 -3 7 C-2.34 7 -1.68 7 -1 7 C-0.67 4.69 -0.34 2.38 0 0 Z " fill="#DCDCDC" transform="translate(416,111)"/>
<path d="M0 0 C3.69861034 0.47418081 7.24006746 1.26245593 10.8125 2.3125 C11.58207031 2.53550781 12.35164063 2.75851563 13.14453125 2.98828125 C15 4 15 4 15.76171875 6.10546875 C15.84035156 6.73066406 15.91898437 7.35585938 16 8 C12.38944909 7.23757784 9.14165375 5.87526626 5.75 4.4375 C4.67234375 3.98246094 3.5946875 3.52742188 2.484375 3.05859375 C1.66453125 2.70925781 0.8446875 2.35992187 0 2 C0 1.34 0 0.68 0 0 Z " fill="#D2D2D2" transform="translate(426,35)"/>
<path d="M0 0 C1.32 0.66 2.64 1.32 4 2 C-0.7842494 5.1894996 -4.22424557 6.26863974 -10 6 C-9.01 4.68 -8.02 3.36 -7 2 C-6.360625 2.185625 -5.72125 2.37125 -5.0625 2.5625 C-4.381875 2.706875 -3.70125 2.85125 -3 3 C-2.67 2.67 -2.34 2.34 -2 2 C-1.34 1.34 -0.68 0.68 0 0 Z " fill="#D4D4D4" transform="translate(184,27)"/>
<path d="M0 0 C0.66 0 1.32 0 2 0 C2.19658808 1.41543415 2.38187546 2.83244031 2.5625 4.25 C2.66691406 5.03890625 2.77132813 5.8278125 2.87890625 6.640625 C3.00027349 9.00532874 2.69633257 10.7511037 2 13 C1.34 13 0.68 13 0 13 C-0.19466332 11.20909747 -0.38051213 9.41723495 -0.5625 7.625 C-0.66691406 6.62726563 -0.77132813 5.62953125 -0.87890625 4.6015625 C-1 2 -1 2 0 0 Z " fill="#BA042F" transform="translate(413,98)"/>
<path d="M0 0 C2.31 0 4.62 0 7 0 C7 2.31 7 4.62 7 7 C6.01 7 5.02 7 4 7 C3.34 5.35 2.68 3.7 2 2 C1.34 2 0.68 2 0 2 C0 1.34 0 0.68 0 0 Z " fill="#B3002A" transform="translate(317,102)"/>
<path d="M0 0 C-0.99 0.33 -1.98 0.66 -3 1 C-3.33 1.66 -3.66 2.32 -4 3 C-8.12171284 5.06085642 -11.36220546 6.42161769 -16 6 C-13.10600531 3.65788337 -10.32844572 2.13137829 -6.875 0.75 C-6.00617188 0.39421875 -5.13734375 0.0384375 -4.2421875 -0.328125 C-2 -1 -2 -1 0 0 Z " fill="#E3D3D5" transform="translate(315,138)"/>
<path d="M0 0 C0.78375 0.04125 1.5675 0.0825 2.375 0.125 C2.375 0.785 2.375 1.445 2.375 2.125 C1.385 2.62 1.385 2.62 0.375 3.125 C1.035 3.785 1.695 4.445 2.375 5.125 C-0.265 5.455 -2.905 5.785 -5.625 6.125 C-4.86443086 2.32215429 -4.27658992 0.20364714 0 0 Z " fill="#BB0B33" transform="translate(351.625,102.875)"/>
<path d="M0 0 C0.99 0.33 1.98 0.66 3 1 C-0.33562767 5.51290803 -2.33289301 7.68206814 -8 9 C-7.04270084 7.87411986 -6.08412105 6.7493285 -5.125 5.625 C-4.59132812 4.99851563 -4.05765625 4.37203125 -3.5078125 3.7265625 C-2.38567993 2.44163349 -1.20628025 1.20628025 0 0 Z " fill="#CBCBCB" transform="translate(258,167)"/>
<path d="M0 0 C-2.6802822 1.43473929 -5.14749077 2.39715699 -8.109375 3.0703125 C-9.24052734 3.33134766 -9.24052734 3.33134766 -10.39453125 3.59765625 C-11.17183594 3.77167969 -11.94914063 3.94570313 -12.75 4.125 C-13.93916016 4.39763672 -13.93916016 4.39763672 -15.15234375 4.67578125 C-17.10052366 5.12175014 -19.05012731 5.56149151 -21 6 C-21 5.34 -21 4.68 -21 4 C-19.43840941 3.51787786 -17.87568072 3.03944127 -16.3125 2.5625 C-15.00732422 2.16224609 -15.00732422 2.16224609 -13.67578125 1.75390625 C-9.00072918 0.4367018 -4.86567612 -0.11315526 0 0 Z " fill="#BAA0A3" transform="translate(183,36)"/>
<path d="M0 0 C5.19822672 1.36144033 8.09543873 3.46730171 12 7 C11.01 7.33 10.02 7.66 9 8 C7.28724465 6.72641268 5.62332967 5.38576923 4 4 C2.68861096 3.29114106 1.36222983 2.60543548 0 2 C0 1.34 0 0.68 0 0 Z " fill="#D1D1D1" transform="translate(412,27)"/>
<path d="M0 0 C-1.20381448 2.49361571 -2.45428722 4.68143083 -4 7 C-7 6 -7 6 -10 4 C-8.71086513 3.32845067 -7.41859796 2.66291141 -6.125 2 C-5.40570313 1.62875 -4.68640625 1.2575 -3.9453125 0.875 C-2 0 -2 0 0 0 Z " fill="#E0CACD" transform="translate(298,144)"/>
<path d="M0 0 C2 4 2 4 1.625 6.25 C1.41875 6.8275 1.2125 7.405 1 8 C1.99 7.67 2.98 7.34 4 7 C4 7.99 4 8.98 4 10 C2.68 10.99 1.36 11.98 0 13 C0 8.71 0 4.42 0 0 Z " fill="#B7062E" transform="translate(324,89)"/>
<path d="M0 0 C0 0.33 0 0.66 0 1 C-11.52164009 3.29612756 -11.52164009 3.29612756 -17 3 C-11.52817608 -0.64788261 -6.33436983 -1.58359246 0 0 Z " fill="#B19EA0" transform="translate(217,29)"/>
<path d="M0 0 C2.625 0.375 2.625 0.375 5 1 C1.98552165 3.57075841 -0.35979771 4.52207066 -4.25 5.1875 C-5.58804688 5.42533203 -5.58804688 5.42533203 -6.953125 5.66796875 C-7.96632812 5.83232422 -7.96632812 5.83232422 -9 6 C-8.67 5.01 -8.34 4.02 -8 3 C-6.576875 2.814375 -6.576875 2.814375 -5.125 2.625 C-1.91332809 2.28312823 -1.91332809 2.28312823 0 0 Z " fill="#B4A9AA" transform="translate(198,29)"/>
<path d="M0 0 C0 4.00333149 -0.93272472 6.80957758 -3.625 9.8125 C-4.07875 10.204375 -4.5325 10.59625 -5 11 C-5.66 10.67 -6.32 10.34 -7 10 C-6.02223933 8.51990357 -5.0427506 7.04094856 -4.0625 5.5625 C-3.51722656 4.73878906 -2.97195312 3.91507813 -2.41015625 3.06640625 C-1 1 -1 1 0 0 Z " fill="#DEDEDE" transform="translate(235,203)"/>
<path d="M0 0 C0 0.66 0 1.32 0 2 C-3.21451269 3.60725635 -6.43612536 3.05748185 -10 3 C-8 0 -8 0 -6.125 -0.75 C-3.80466218 -1.02298092 -2.21024918 -0.71043724 0 0 Z " fill="#A50327" transform="translate(226,104)"/>
<path d="M0 0 C4.75 0.875 4.75 0.875 7 2 C7 2.66 7 3.32 7 4 C6.01 4 5.02 4 4 4 C4 4.99 4 5.98 4 7 C3.34 7 2.68 7 2 7 C0.5393715 4.35261084 0 3.10551666 0 0 Z " fill="#B7002B" transform="translate(177,71)"/>
<path d="M0 0 C0 0.66 0 1.32 0 2 C-0.99 2 -1.98 2 -3 2 C-3 2.66 -3 3.32 -3 4 C-4.26418246 4.69965443 -5.53665402 5.38434763 -6.8125 6.0625 C-7.52019531 6.44535156 -8.22789062 6.82820312 -8.95703125 7.22265625 C-11 8 -11 8 -14 7 C-12.04480616 5.82807953 -10.0857461 4.6626071 -8.125 3.5 C-7.03445313 2.8503125 -5.94390625 2.200625 -4.8203125 1.53125 C-2 0 -2 0 0 0 Z " fill="#D5C2C4" transform="translate(288,149)"/>
<path d="M0 0 C-3.96 1.98 -7.92 3.96 -12 6 C-9.47044504 0.94089009 -5.73679191 -1.91226397 0 0 Z " fill="#D0C1C4" transform="translate(114,59)"/>
<path d="M0 0 C-3.85477249 2.56984833 -7.52040582 3.85814266 -12 5 C-11.67 4.34 -11.34 3.68 -11 3 C-10.34 3 -9.68 3 -9 3 C-8.67 2.01 -8.34 1.02 -8 0 C-4.71303767 -0.79953138 -3.28976808 -1.09658936 0 0 Z " fill="#DBDBDB" transform="translate(116,56)"/>
<path d="M0 0 C2.64 0 5.28 0 8 0 C8 0.66 8 1.32 8 2 C5.03 2.66 2.06 3.32 -1 4 C-0.67 2.68 -0.34 1.36 0 0 Z " fill="#E4DEDF" transform="translate(210,226)"/>
<path d="M0 0 C3.465 1.485 3.465 1.485 7 3 C6.34 4.32 5.68 5.64 5 7 C4.01 6.67 3.02 6.34 2 6 C0.8125 2.9375 0.8125 2.9375 0 0 Z " fill="#C0C0C0" transform="translate(407,27)"/>
<path d="M0 0 C0.78503906 0.07863281 1.57007813 0.15726563 2.37890625 0.23828125 C4.4375 0.6875 4.4375 0.6875 6.4375 2.6875 C4.66700311 2.74160687 2.89603151 2.78034119 1.125 2.8125 C-0.35419922 2.84730469 -0.35419922 2.84730469 -1.86328125 2.8828125 C-4.5625 2.6875 -4.5625 2.6875 -7.5625 0.6875 C-4.5419408 -0.31935307 -3.09173734 -0.34126261 0 0 Z " fill="#D5D5D5" transform="translate(360.5625,14.3125)"/>
<path d="M0 0 C1.98 0 3.96 0 6 0 C4.35 1.65 2.7 3.3 1 5 C0.34 4.67 -0.32 4.34 -1 4 C-0.67 2.68 -0.34 1.36 0 0 Z " fill="#EAEAEA" transform="translate(298,144)"/>
<path d="M0 0 C0.33 0 0.66 0 1 0 C1 2.64 1 5.28 1 8 C1.66 8.33 2.32 8.66 3 9 C1.68 9.99 0.36 10.98 -1 12 C-2.42857143 3.42857143 -2.42857143 3.42857143 0 0 Z " fill="#B6002C" transform="translate(276,94)"/>
<path d="M0 0 C0.33 0 0.66 0 1 0 C1.125 7.75 1.125 7.75 0 10 C-0.66 10 -1.32 10 -2 10 C-1.34 6.7 -0.68 3.4 0 0 Z " fill="#D4D4D4" transform="translate(474,82)"/>
<path d="M0 0 C-1.12073862 0.83905565 -2.24674547 1.67107831 -3.375 2.5 C-4.00148438 2.9640625 -4.62796875 3.428125 -5.2734375 3.90625 C-7 5 -7 5 -9 5 C-8.8125 3.125 -8.8125 3.125 -8 1 C-4.70594381 -0.82039948 -3.63772813 -1.21257604 0 0 Z " fill="#DFD6D6" transform="translate(88,72)"/>
<path d="M0 0 C0.99 0.33 1.98 0.66 3 1 C0.6875 3.0625 0.6875 3.0625 -2 5 C-2.99 4.67 -3.98 4.34 -5 4 C-2.6875 1.9375 -2.6875 1.9375 0 0 Z M-9 6 C-8.01 6.33 -7.02 6.66 -6 7 C-6.99 7.33 -7.98 7.66 -9 8 C-9 7.34 -9 6.68 -9 6 Z " fill="#E6E6E6" transform="translate(104,57)"/>
<path d="M0 0 C3.12290635 0.48578543 5.99580359 0.9986012 9 2 C8.67 2.99 8.34 3.98 8 5 C7.4225 4.690625 6.845 4.38125 6.25 4.0625 C4.15705816 3.07416636 2.25464725 2.4831387 0 2 C0 1.34 0 0.68 0 0 Z " fill="#C7C7C7" transform="translate(392,23)"/>
<path d="M0 0 C-1 2 -1 2 -2.625 2.625 C-5.7660575 3.12095645 -8.82601831 3.06103811 -12 3 C-8.40198016 -0.59801984 -4.84291279 -0.09137571 0 0 Z " fill="#DBDBDB" transform="translate(253,14)"/>
<path d="M0 0 C0.99 0.33 1.98 0.66 3 1 C0.03 4.96 0.03 4.96 -3 9 C-3.33 8.01 -3.66 7.02 -4 6 C-2.0625 2.8125 -2.0625 2.8125 0 0 Z " fill="#C0C0C0" transform="translate(231,200)"/>
<path d="M0 0 C0 0.33 0 0.66 0 1 C-3.3 1.33 -6.6 1.66 -10 2 C-6.82020798 -2.76968803 -4.78499148 -2.1985096 0 0 Z " fill="#A6A2A1" transform="translate(279,22)"/>
<path d="M0 0 C0.66 0.33 1.32 0.66 2 1 C1.34 2.32 0.68 3.64 0 5 C-0.99 5 -1.98 5 -3 5 C-3 3.68 -3 2.36 -3 1 C-2.01 0.67 -1.02 0.34 0 0 Z " fill="#BE032F" transform="translate(270,122)"/>
<path d="M0 0 C-3.08559304 2.26881841 -4.42209376 3.05451946 -8.3125 2.6875 C-9.199375 2.460625 -10.08625 2.23375 -11 2 C-6.99642627 -0.14477164 -4.43233175 -1.47744392 0 0 Z " fill="#BDA4A6" transform="translate(379,118)"/>
<path d="M0 0 C-3.50776784 1.60355101 -6.14354879 2.22036864 -10 2 C-8 -1 -8 -1 -6.125 -1.8125 C-3.50147776 -2.04398726 -2.21976911 -1.34771696 0 0 Z " fill="#D4D4D4" transform="translate(198,27)"/>
<path d="M0 0 C0.99 0.66 1.98 1.32 3 2 C3 2.66 3 3.32 3 4 C0.36 4 -2.28 4 -5 4 C-3.35 2.68 -1.7 1.36 0 0 Z " fill="#ADADAD" transform="translate(230,23)"/>
<path d="M0 0 C2.3828125 -0.29296875 2.3828125 -0.29296875 5.125 -0.1875 C6.03507812 -0.16042969 6.94515625 -0.13335938 7.8828125 -0.10546875 C8.58148438 -0.07066406 9.28015625 -0.03585938 10 0 C6.96474514 2.02350324 5.80573798 2.32124018 2.3125 2.625 C1.50425781 2.69976563 0.69601562 2.77453125 -0.13671875 2.8515625 C-0.75160156 2.90054687 -1.36648438 2.94953125 -2 3 C-1.34 2.01 -0.68 1.02 0 0 Z " fill="#B8B8B8" transform="translate(264,17)"/>
<path d="M0 0 C0.99 0.33 1.98 0.66 3 1 C1 4 1 4 -1.625 4.6875 C-2.800625 4.8421875 -2.800625 4.8421875 -4 5 C-2.25 1.125 -2.25 1.125 0 0 Z " fill="#C3B9BB" transform="translate(214,220)"/>
<path d="M0 0 C-0.33 0.99 -0.66 1.98 -1 3 C-3.31 3 -5.62 3 -8 3 C-5.53387212 -0.1151089 -3.89156016 -0.31553191 0 0 Z " fill="#A80027" transform="translate(359,104)"/>
<path d="M0 0 C0.99 0.33 1.98 0.66 3 1 C0.47043472 4.0916909 -2.22454612 4.90931332 -6 6 C-2.25 1.125 -2.25 1.125 0 0 Z " fill="#E4E4E4" transform="translate(92,65)"/>
</svg>
