<?xml version="1.0" standalone="no"?>
<!DOCTYPE svg PUBLIC "-//W3C//DTD SVG 20010904//EN"
 "http://www.w3.org/TR/2001/REC-SVG-20010904/DTD/svg10.dtd">
<svg version="1.0" xmlns="http://www.w3.org/2000/svg"
 width="201.000000pt" height="84.000000pt" viewBox="0 0 201.000000 84.000000"
 preserveAspectRatio="xMidYMid meet">

<g transform="translate(0.000000,84.000000) scale(0.100000,-0.100000)"
fill="#000000" stroke="none">
<path d="M745 761 c-202 -37 -354 -94 -481 -182 -332 -230 -131 -498 374 -499
74 0 92 3 92 15 0 36 34 85 67 96 38 12 63 42 56 68 -3 13 11 28 52 55 60 40
183 100 228 111 21 6 25 10 17 20 -13 16 -3 43 18 49 10 2 41 8 70 11 79 10
63 26 -20 19 l-73 -5 24 20 c34 30 161 31 191 1 11 -11 20 -28 20 -38 0 -17 5
-18 48 -10 26 4 64 10 85 13 42 7 47 22 23 78 -28 68 -128 132 -262 168 -113
31 -387 36 -529 10z m-132 -179 c31 -29 40 -62 27 -96 -14 -39 -47 -51 -158
-56 l-102 -5 0 93 0 94 104 -4 c93 -3 107 -6 129 -26z m457 -3 c0 -12 7 -19
20 -19 13 0 20 -7 20 -20 0 -13 -7 -20 -20 -20 -16 0 -20 -7 -20 -30 0 -24 4
-30 21 -30 14 0 19 -5 17 -17 -3 -14 -14 -18 -52 -17 -54 0 -76 19 -76 62 0
14 -8 31 -17 38 -17 12 -16 14 6 36 26 24 81 48 94 41 4 -2 7 -13 7 -24z
m-172 -35 c18 -12 22 -25 22 -65 l0 -51 -42 3 c-24 1 -63 -1 -88 -5 -55 -9
-100 6 -100 33 0 28 18 38 83 45 84 11 71 27 -15 20 l-73 -5 24 20 c19 17 37
21 95 21 49 0 79 -5 94 -16z"/>
<path d="M470 520 c0 -46 2 -50 24 -50 44 0 56 10 56 46 0 28 -5 36 -26 44
-48 19 -54 14 -54 -40z"/>
<path d="M805 481 c-30 -6 -38 -24 -13 -29 14 -3 56 24 48 30 -3 2 -18 2 -35
-1z"/>
<path d="M1258 482 c-16 -2 -28 -8 -28 -13 0 -13 47 -11 55 2 9 14 5 15 -27
11z"/>
<path d="M1388 379 c-22 -12 -24 -39 -3 -39 8 0 15 4 15 9 0 5 10 13 21 16 17
6 19 9 8 16 -17 11 -20 11 -41 -2z"/>
<path d="M1191 279 l-30 -90 41 3 41 3 23 67 c40 119 40 108 -4 108 l-40 0
-31 -91z"/>
<path d="M1628 340 c-10 -29 -12 -30 -57 -24 -52 7 -103 -12 -115 -41 -20 -52
4 -89 57 -88 18 1 57 2 87 2 l55 1 28 82 c15 46 27 86 27 91 0 4 -16 7 -36 7
-30 0 -37 -4 -46 -30z m-44 -56 c21 -8 20 -33 -1 -56 -20 -22 -36 -23 -53 -3
-10 12 -9 20 4 40 17 26 24 29 50 19z"/>
<path d="M942 305 c-37 -16 -57 -56 -42 -85 16 -30 85 -44 145 -31 60 14 85
35 85 72 0 21 -7 32 -30 44 -36 19 -114 19 -158 0z m107 -29 c20 -24 -4 -56
-40 -56 -40 0 -50 27 -20 52 28 22 45 23 60 4z"/>
<path d="M1323 255 l-21 -65 38 0 c38 0 39 1 59 55 12 31 21 60 21 65 0 6 -17
10 -38 10 -38 0 -38 0 -59 -65z"/>
</g>
</svg>
